<mxfile host="Electron" modified="2023-12-03T20:26:22.991Z" agent="Mozilla/5.0 (Macintosh; Intel Mac OS X 10_15_7) AppleWebKit/537.36 (KHTML, like Gecko) draw.io/22.1.2 Chrome/114.0.5735.289 Electron/25.9.4 Safari/537.36" etag="Iv74ljDgjmKw5nddTnjG" version="22.1.2" type="device">
  <diagram name="Page-1" id="OMR6WM4BU35nRufWJwMW">
    <mxGraphModel dx="12536" dy="4180" grid="1" gridSize="10" guides="1" tooltips="1" connect="1" arrows="1" fold="1" page="1" pageScale="1" pageWidth="850" pageHeight="1100" math="0" shadow="0">
      <root>
        <mxCell id="0" />
        <mxCell id="1" parent="0" />
        <mxCell id="oGTQj1oGCnuFLCIUEzCe-160" value="" style="rhombus;whiteSpace=wrap;html=1;" vertex="1" parent="1">
          <mxGeometry x="537.5" y="140" width="105" height="100" as="geometry" />
        </mxCell>
        <mxCell id="oGTQj1oGCnuFLCIUEzCe-151" value="" style="rounded=0;whiteSpace=wrap;html=1;" vertex="1" parent="1">
          <mxGeometry x="735" y="175" width="150" height="80" as="geometry" />
        </mxCell>
        <mxCell id="oGTQj1oGCnuFLCIUEzCe-1" value="Member" style="rounded=0;whiteSpace=wrap;html=1;" vertex="1" parent="1">
          <mxGeometry x="30" y="55" width="120" height="60" as="geometry" />
        </mxCell>
        <mxCell id="oGTQj1oGCnuFLCIUEzCe-2" value="Loyalty Program" style="rounded=0;whiteSpace=wrap;html=1;" vertex="1" parent="1">
          <mxGeometry x="750" y="185" width="120" height="60" as="geometry" />
        </mxCell>
        <mxCell id="oGTQj1oGCnuFLCIUEzCe-3" value="Trainer" style="rounded=0;whiteSpace=wrap;html=1;" vertex="1" parent="1">
          <mxGeometry x="-30" y="340" width="120" height="60" as="geometry" />
        </mxCell>
        <mxCell id="oGTQj1oGCnuFLCIUEzCe-4" value="Fitness Class" style="rounded=0;whiteSpace=wrap;html=1;" vertex="1" parent="1">
          <mxGeometry x="-10" y="700" width="120" height="60" as="geometry" />
        </mxCell>
        <mxCell id="oGTQj1oGCnuFLCIUEzCe-5" value="Room" style="rounded=0;whiteSpace=wrap;html=1;" vertex="1" parent="1">
          <mxGeometry x="340" y="923" width="120" height="60" as="geometry" />
        </mxCell>
        <mxCell id="oGTQj1oGCnuFLCIUEzCe-7" value="Personal Training Session" style="rounded=0;whiteSpace=wrap;html=1;" vertex="1" parent="1">
          <mxGeometry x="765" y="390" width="120" height="60" as="geometry" />
        </mxCell>
        <mxCell id="oGTQj1oGCnuFLCIUEzCe-9" value="Billing and Payment" style="rounded=0;whiteSpace=wrap;html=1;" vertex="1" parent="1">
          <mxGeometry x="700" y="742.5" width="120" height="60" as="geometry" />
        </mxCell>
        <mxCell id="oGTQj1oGCnuFLCIUEzCe-11" value="Administrative Staff&lt;br&gt;" style="rounded=0;whiteSpace=wrap;html=1;" vertex="1" parent="1">
          <mxGeometry x="380" y="-30" width="120" height="60" as="geometry" />
        </mxCell>
        <mxCell id="oGTQj1oGCnuFLCIUEzCe-12" value="&lt;u&gt;MemberID&lt;/u&gt;" style="ellipse;whiteSpace=wrap;html=1;" vertex="1" parent="1">
          <mxGeometry y="-95" width="100" height="50" as="geometry" />
        </mxCell>
        <mxCell id="oGTQj1oGCnuFLCIUEzCe-13" value="Email" style="ellipse;whiteSpace=wrap;html=1;" vertex="1" parent="1">
          <mxGeometry x="-120" y="-75" width="100" height="50" as="geometry" />
        </mxCell>
        <mxCell id="oGTQj1oGCnuFLCIUEzCe-14" value="Fitness Goals" style="ellipse;whiteSpace=wrap;html=1;" vertex="1" parent="1">
          <mxGeometry x="-200" y="-5" width="100" height="50" as="geometry" />
        </mxCell>
        <mxCell id="oGTQj1oGCnuFLCIUEzCe-15" value="Loyalty&amp;nbsp;" style="ellipse;whiteSpace=wrap;html=1;" vertex="1" parent="1">
          <mxGeometry x="-250" y="75" width="100" height="50" as="geometry" />
        </mxCell>
        <mxCell id="oGTQj1oGCnuFLCIUEzCe-16" value="Name" style="ellipse;whiteSpace=wrap;html=1;" vertex="1" parent="1">
          <mxGeometry x="-100" y="-155" width="100" height="50" as="geometry" />
        </mxCell>
        <mxCell id="oGTQj1oGCnuFLCIUEzCe-17" value="Date of Birth" style="ellipse;whiteSpace=wrap;html=1;" vertex="1" parent="1">
          <mxGeometry x="-240" y="-85" width="100" height="50" as="geometry" />
        </mxCell>
        <mxCell id="oGTQj1oGCnuFLCIUEzCe-18" value="weight" style="ellipse;whiteSpace=wrap;html=1;" vertex="1" parent="1">
          <mxGeometry x="-340" y="15" width="100" height="50" as="geometry" />
        </mxCell>
        <mxCell id="oGTQj1oGCnuFLCIUEzCe-19" value="" style="endArrow=none;html=1;rounded=0;" edge="1" parent="1" source="oGTQj1oGCnuFLCIUEzCe-1" target="oGTQj1oGCnuFLCIUEzCe-12">
          <mxGeometry width="50" height="50" relative="1" as="geometry">
            <mxPoint x="100" y="195" as="sourcePoint" />
            <mxPoint x="150" y="145" as="targetPoint" />
          </mxGeometry>
        </mxCell>
        <mxCell id="oGTQj1oGCnuFLCIUEzCe-21" value="" style="endArrow=none;html=1;rounded=0;" edge="1" parent="1" source="oGTQj1oGCnuFLCIUEzCe-1" target="oGTQj1oGCnuFLCIUEzCe-16">
          <mxGeometry width="50" height="50" relative="1" as="geometry">
            <mxPoint x="92" y="65" as="sourcePoint" />
            <mxPoint x="66" y="-35" as="targetPoint" />
          </mxGeometry>
        </mxCell>
        <mxCell id="oGTQj1oGCnuFLCIUEzCe-22" value="" style="endArrow=none;html=1;rounded=0;" edge="1" parent="1" source="oGTQj1oGCnuFLCIUEzCe-1" target="oGTQj1oGCnuFLCIUEzCe-17">
          <mxGeometry width="50" height="50" relative="1" as="geometry">
            <mxPoint x="102" y="75" as="sourcePoint" />
            <mxPoint x="76" y="-25" as="targetPoint" />
          </mxGeometry>
        </mxCell>
        <mxCell id="oGTQj1oGCnuFLCIUEzCe-23" value="" style="endArrow=none;html=1;rounded=0;" edge="1" parent="1" source="oGTQj1oGCnuFLCIUEzCe-1" target="oGTQj1oGCnuFLCIUEzCe-18">
          <mxGeometry width="50" height="50" relative="1" as="geometry">
            <mxPoint x="112" y="85" as="sourcePoint" />
            <mxPoint x="86" y="-15" as="targetPoint" />
          </mxGeometry>
        </mxCell>
        <mxCell id="oGTQj1oGCnuFLCIUEzCe-24" value="" style="endArrow=none;html=1;rounded=0;" edge="1" parent="1" source="oGTQj1oGCnuFLCIUEzCe-1" target="oGTQj1oGCnuFLCIUEzCe-13">
          <mxGeometry width="50" height="50" relative="1" as="geometry">
            <mxPoint x="122" y="95" as="sourcePoint" />
            <mxPoint x="96" y="-5" as="targetPoint" />
          </mxGeometry>
        </mxCell>
        <mxCell id="oGTQj1oGCnuFLCIUEzCe-25" value="" style="endArrow=none;html=1;rounded=0;" edge="1" parent="1" source="oGTQj1oGCnuFLCIUEzCe-1" target="oGTQj1oGCnuFLCIUEzCe-14">
          <mxGeometry width="50" height="50" relative="1" as="geometry">
            <mxPoint x="132" y="105" as="sourcePoint" />
            <mxPoint x="106" y="5" as="targetPoint" />
          </mxGeometry>
        </mxCell>
        <mxCell id="oGTQj1oGCnuFLCIUEzCe-26" value="" style="endArrow=none;html=1;rounded=0;" edge="1" parent="1" source="oGTQj1oGCnuFLCIUEzCe-1" target="oGTQj1oGCnuFLCIUEzCe-15">
          <mxGeometry width="50" height="50" relative="1" as="geometry">
            <mxPoint x="142" y="115" as="sourcePoint" />
            <mxPoint x="116" y="15" as="targetPoint" />
          </mxGeometry>
        </mxCell>
        <mxCell id="oGTQj1oGCnuFLCIUEzCe-27" value="&lt;u&gt;TrainerID&lt;/u&gt;" style="ellipse;whiteSpace=wrap;html=1;" vertex="1" parent="1">
          <mxGeometry x="-180" y="250" width="110" height="50" as="geometry" />
        </mxCell>
        <mxCell id="oGTQj1oGCnuFLCIUEzCe-28" value="Name" style="ellipse;whiteSpace=wrap;html=1;" vertex="1" parent="1">
          <mxGeometry x="-280" y="297" width="110" height="50" as="geometry" />
        </mxCell>
        <mxCell id="oGTQj1oGCnuFLCIUEzCe-30" value="Email" style="ellipse;whiteSpace=wrap;html=1;" vertex="1" parent="1">
          <mxGeometry x="-280" y="370" width="110" height="45" as="geometry" />
        </mxCell>
        <mxCell id="oGTQj1oGCnuFLCIUEzCe-32" value="" style="endArrow=none;html=1;rounded=0;" edge="1" parent="1" source="oGTQj1oGCnuFLCIUEzCe-3" target="oGTQj1oGCnuFLCIUEzCe-27">
          <mxGeometry width="50" height="50" relative="1" as="geometry">
            <mxPoint x="40" y="360" as="sourcePoint" />
            <mxPoint x="90" y="310" as="targetPoint" />
          </mxGeometry>
        </mxCell>
        <mxCell id="oGTQj1oGCnuFLCIUEzCe-33" value="" style="endArrow=none;html=1;rounded=0;" edge="1" parent="1" source="oGTQj1oGCnuFLCIUEzCe-3" target="oGTQj1oGCnuFLCIUEzCe-28">
          <mxGeometry width="50" height="50" relative="1" as="geometry">
            <mxPoint x="-9" y="350" as="sourcePoint" />
            <mxPoint x="-82" y="305" as="targetPoint" />
          </mxGeometry>
        </mxCell>
        <mxCell id="oGTQj1oGCnuFLCIUEzCe-34" value="" style="endArrow=none;html=1;rounded=0;" edge="1" parent="1" source="oGTQj1oGCnuFLCIUEzCe-3" target="oGTQj1oGCnuFLCIUEzCe-30">
          <mxGeometry width="50" height="50" relative="1" as="geometry">
            <mxPoint x="1" y="360" as="sourcePoint" />
            <mxPoint x="-72" y="315" as="targetPoint" />
          </mxGeometry>
        </mxCell>
        <mxCell id="oGTQj1oGCnuFLCIUEzCe-37" value="&lt;u&gt;ClassID&lt;/u&gt;" style="ellipse;whiteSpace=wrap;html=1;" vertex="1" parent="1">
          <mxGeometry x="-160.5" y="605" width="110" height="50" as="geometry" />
        </mxCell>
        <mxCell id="oGTQj1oGCnuFLCIUEzCe-38" value="Name" style="ellipse;whiteSpace=wrap;html=1;" vertex="1" parent="1">
          <mxGeometry x="-260.5" y="660" width="110" height="50" as="geometry" />
        </mxCell>
        <mxCell id="oGTQj1oGCnuFLCIUEzCe-40" value="Description" style="ellipse;whiteSpace=wrap;html=1;" vertex="1" parent="1">
          <mxGeometry x="-280" y="740" width="110" height="50" as="geometry" />
        </mxCell>
        <mxCell id="oGTQj1oGCnuFLCIUEzCe-41" value="Capacity" style="ellipse;whiteSpace=wrap;html=1;" vertex="1" parent="1">
          <mxGeometry x="-290" y="810" width="110" height="50" as="geometry" />
        </mxCell>
        <mxCell id="oGTQj1oGCnuFLCIUEzCe-42" value="" style="endArrow=none;html=1;rounded=0;" edge="1" parent="1" target="oGTQj1oGCnuFLCIUEzCe-37" source="oGTQj1oGCnuFLCIUEzCe-4">
          <mxGeometry width="50" height="50" relative="1" as="geometry">
            <mxPoint x="0.5" y="695" as="sourcePoint" />
            <mxPoint x="109.5" y="665" as="targetPoint" />
          </mxGeometry>
        </mxCell>
        <mxCell id="oGTQj1oGCnuFLCIUEzCe-43" value="" style="endArrow=none;html=1;rounded=0;" edge="1" parent="1" target="oGTQj1oGCnuFLCIUEzCe-38" source="oGTQj1oGCnuFLCIUEzCe-4">
          <mxGeometry width="50" height="50" relative="1" as="geometry">
            <mxPoint x="-10.5" y="716" as="sourcePoint" />
            <mxPoint x="-62.5" y="660" as="targetPoint" />
          </mxGeometry>
        </mxCell>
        <mxCell id="oGTQj1oGCnuFLCIUEzCe-44" value="" style="endArrow=none;html=1;rounded=0;" edge="1" parent="1" target="oGTQj1oGCnuFLCIUEzCe-40" source="oGTQj1oGCnuFLCIUEzCe-4">
          <mxGeometry width="50" height="50" relative="1" as="geometry">
            <mxPoint x="-10.5" y="725" as="sourcePoint" />
            <mxPoint x="-52.5" y="670" as="targetPoint" />
          </mxGeometry>
        </mxCell>
        <mxCell id="oGTQj1oGCnuFLCIUEzCe-46" value="" style="endArrow=none;html=1;rounded=0;" edge="1" parent="1" target="oGTQj1oGCnuFLCIUEzCe-41" source="oGTQj1oGCnuFLCIUEzCe-4">
          <mxGeometry width="50" height="50" relative="1" as="geometry">
            <mxPoint x="0.5" y="755" as="sourcePoint" />
            <mxPoint x="-32.5" y="690" as="targetPoint" />
          </mxGeometry>
        </mxCell>
        <mxCell id="oGTQj1oGCnuFLCIUEzCe-52" value="&lt;u&gt;StaffID&lt;/u&gt;" style="ellipse;whiteSpace=wrap;html=1;" vertex="1" parent="1">
          <mxGeometry x="520" y="-140" width="100" height="50" as="geometry" />
        </mxCell>
        <mxCell id="oGTQj1oGCnuFLCIUEzCe-53" value="Name" style="ellipse;whiteSpace=wrap;html=1;" vertex="1" parent="1">
          <mxGeometry x="470" y="-220" width="100" height="50" as="geometry" />
        </mxCell>
        <mxCell id="oGTQj1oGCnuFLCIUEzCe-54" value="Email" style="ellipse;whiteSpace=wrap;html=1;" vertex="1" parent="1">
          <mxGeometry x="390" y="-280" width="100" height="50" as="geometry" />
        </mxCell>
        <mxCell id="oGTQj1oGCnuFLCIUEzCe-55" value="Role" style="ellipse;whiteSpace=wrap;html=1;" vertex="1" parent="1">
          <mxGeometry x="300" y="-220" width="100" height="50" as="geometry" />
        </mxCell>
        <mxCell id="oGTQj1oGCnuFLCIUEzCe-56" value="Work Schedule" style="ellipse;whiteSpace=wrap;html=1;" vertex="1" parent="1">
          <mxGeometry x="270" y="-140" width="100" height="50" as="geometry" />
        </mxCell>
        <mxCell id="oGTQj1oGCnuFLCIUEzCe-57" value="" style="endArrow=none;html=1;rounded=0;" edge="1" parent="1" source="oGTQj1oGCnuFLCIUEzCe-11" target="oGTQj1oGCnuFLCIUEzCe-52">
          <mxGeometry width="50" height="50" relative="1" as="geometry">
            <mxPoint x="380" y="-40" as="sourcePoint" />
            <mxPoint x="430" y="-90" as="targetPoint" />
          </mxGeometry>
        </mxCell>
        <mxCell id="oGTQj1oGCnuFLCIUEzCe-58" value="" style="endArrow=none;html=1;rounded=0;" edge="1" parent="1" source="oGTQj1oGCnuFLCIUEzCe-11" target="oGTQj1oGCnuFLCIUEzCe-53">
          <mxGeometry width="50" height="50" relative="1" as="geometry">
            <mxPoint x="484" y="-20" as="sourcePoint" />
            <mxPoint x="555" y="-83" as="targetPoint" />
          </mxGeometry>
        </mxCell>
        <mxCell id="oGTQj1oGCnuFLCIUEzCe-59" value="" style="endArrow=none;html=1;rounded=0;" edge="1" parent="1" source="oGTQj1oGCnuFLCIUEzCe-11" target="oGTQj1oGCnuFLCIUEzCe-54">
          <mxGeometry width="50" height="50" relative="1" as="geometry">
            <mxPoint x="494" y="-10" as="sourcePoint" />
            <mxPoint x="565" y="-73" as="targetPoint" />
          </mxGeometry>
        </mxCell>
        <mxCell id="oGTQj1oGCnuFLCIUEzCe-60" value="" style="endArrow=none;html=1;rounded=0;" edge="1" parent="1" source="oGTQj1oGCnuFLCIUEzCe-11" target="oGTQj1oGCnuFLCIUEzCe-55">
          <mxGeometry width="50" height="50" relative="1" as="geometry">
            <mxPoint x="504" as="sourcePoint" />
            <mxPoint x="575" y="-63" as="targetPoint" />
          </mxGeometry>
        </mxCell>
        <mxCell id="oGTQj1oGCnuFLCIUEzCe-61" value="" style="endArrow=none;html=1;rounded=0;" edge="1" parent="1" source="oGTQj1oGCnuFLCIUEzCe-11" target="oGTQj1oGCnuFLCIUEzCe-56">
          <mxGeometry width="50" height="50" relative="1" as="geometry">
            <mxPoint x="514" y="10" as="sourcePoint" />
            <mxPoint x="585" y="-53" as="targetPoint" />
          </mxGeometry>
        </mxCell>
        <mxCell id="oGTQj1oGCnuFLCIUEzCe-62" value="&lt;u&gt;RoomID&lt;/u&gt;" style="ellipse;whiteSpace=wrap;html=1;" vertex="1" parent="1">
          <mxGeometry x="-40" y="960" width="110.5" height="60" as="geometry" />
        </mxCell>
        <mxCell id="oGTQj1oGCnuFLCIUEzCe-63" value="Name" style="ellipse;whiteSpace=wrap;html=1;" vertex="1" parent="1">
          <mxGeometry x="-29.5" y="1030" width="110.5" height="60" as="geometry" />
        </mxCell>
        <mxCell id="oGTQj1oGCnuFLCIUEzCe-64" value="Capacity" style="ellipse;whiteSpace=wrap;html=1;" vertex="1" parent="1">
          <mxGeometry x="80.5" y="1070" width="110.5" height="60" as="geometry" />
        </mxCell>
        <mxCell id="oGTQj1oGCnuFLCIUEzCe-65" value="room Available" style="ellipse;whiteSpace=wrap;html=1;" vertex="1" parent="1">
          <mxGeometry x="210" y="1080" width="120.5" height="60" as="geometry" />
        </mxCell>
        <mxCell id="oGTQj1oGCnuFLCIUEzCe-66" value="" style="endArrow=none;html=1;rounded=0;" edge="1" parent="1" source="oGTQj1oGCnuFLCIUEzCe-62" target="oGTQj1oGCnuFLCIUEzCe-5">
          <mxGeometry width="50" height="50" relative="1" as="geometry">
            <mxPoint x="440.5" y="890" as="sourcePoint" />
            <mxPoint x="490.5" y="840" as="targetPoint" />
          </mxGeometry>
        </mxCell>
        <mxCell id="oGTQj1oGCnuFLCIUEzCe-68" value="" style="endArrow=none;html=1;rounded=0;" edge="1" parent="1" source="oGTQj1oGCnuFLCIUEzCe-63" target="oGTQj1oGCnuFLCIUEzCe-5">
          <mxGeometry width="50" height="50" relative="1" as="geometry">
            <mxPoint x="79.5" y="994" as="sourcePoint" />
            <mxPoint x="210.5" y="977" as="targetPoint" />
          </mxGeometry>
        </mxCell>
        <mxCell id="oGTQj1oGCnuFLCIUEzCe-69" value="" style="endArrow=none;html=1;rounded=0;" edge="1" parent="1" source="oGTQj1oGCnuFLCIUEzCe-64" target="oGTQj1oGCnuFLCIUEzCe-5">
          <mxGeometry width="50" height="50" relative="1" as="geometry">
            <mxPoint x="79.5" y="1052" as="sourcePoint" />
            <mxPoint x="210.5" y="996" as="targetPoint" />
          </mxGeometry>
        </mxCell>
        <mxCell id="oGTQj1oGCnuFLCIUEzCe-70" value="" style="endArrow=none;html=1;rounded=0;" edge="1" parent="1" source="oGTQj1oGCnuFLCIUEzCe-65" target="oGTQj1oGCnuFLCIUEzCe-5">
          <mxGeometry width="50" height="50" relative="1" as="geometry">
            <mxPoint x="89.5" y="1062" as="sourcePoint" />
            <mxPoint x="220.5" y="1006" as="targetPoint" />
          </mxGeometry>
        </mxCell>
        <mxCell id="oGTQj1oGCnuFLCIUEzCe-71" value="&lt;u&gt;SessionID&lt;/u&gt;" style="ellipse;whiteSpace=wrap;html=1;" vertex="1" parent="1">
          <mxGeometry x="985" y="450" width="105" height="50" as="geometry" />
        </mxCell>
        <mxCell id="oGTQj1oGCnuFLCIUEzCe-72" value="Schedule" style="ellipse;whiteSpace=wrap;html=1;" vertex="1" parent="1">
          <mxGeometry x="875" y="495" width="105" height="50" as="geometry" />
        </mxCell>
        <mxCell id="oGTQj1oGCnuFLCIUEzCe-73" value="Duration" style="ellipse;whiteSpace=wrap;html=1;" vertex="1" parent="1">
          <mxGeometry x="910" y="340" width="105" height="50" as="geometry" />
        </mxCell>
        <mxCell id="oGTQj1oGCnuFLCIUEzCe-74" value="Location" style="ellipse;whiteSpace=wrap;html=1;" vertex="1" parent="1">
          <mxGeometry x="-200" y="860" width="105" height="50" as="geometry" />
        </mxCell>
        <mxCell id="oGTQj1oGCnuFLCIUEzCe-75" value="" style="endArrow=none;html=1;rounded=0;" edge="1" parent="1" source="oGTQj1oGCnuFLCIUEzCe-71" target="oGTQj1oGCnuFLCIUEzCe-7">
          <mxGeometry width="50" height="50" relative="1" as="geometry">
            <mxPoint x="726" y="645" as="sourcePoint" />
            <mxPoint x="720" y="555" as="targetPoint" />
          </mxGeometry>
        </mxCell>
        <mxCell id="oGTQj1oGCnuFLCIUEzCe-76" value="" style="endArrow=none;html=1;rounded=0;" edge="1" parent="1" source="oGTQj1oGCnuFLCIUEzCe-72" target="oGTQj1oGCnuFLCIUEzCe-7">
          <mxGeometry width="50" height="50" relative="1" as="geometry">
            <mxPoint x="774" y="718" as="sourcePoint" />
            <mxPoint x="853" y="655" as="targetPoint" />
          </mxGeometry>
        </mxCell>
        <mxCell id="oGTQj1oGCnuFLCIUEzCe-77" value="" style="endArrow=none;html=1;rounded=0;" edge="1" parent="1" source="oGTQj1oGCnuFLCIUEzCe-73" target="oGTQj1oGCnuFLCIUEzCe-7">
          <mxGeometry width="50" height="50" relative="1" as="geometry">
            <mxPoint x="833" y="765" as="sourcePoint" />
            <mxPoint x="878" y="655" as="targetPoint" />
          </mxGeometry>
        </mxCell>
        <mxCell id="oGTQj1oGCnuFLCIUEzCe-79" value="Day" style="ellipse;whiteSpace=wrap;html=1;" vertex="1" parent="1">
          <mxGeometry x="930" y="565" width="105" height="50" as="geometry" />
        </mxCell>
        <mxCell id="oGTQj1oGCnuFLCIUEzCe-80" value="Time" style="ellipse;whiteSpace=wrap;html=1;" vertex="1" parent="1">
          <mxGeometry x="985" y="515" width="105" height="50" as="geometry" />
        </mxCell>
        <mxCell id="oGTQj1oGCnuFLCIUEzCe-81" value="" style="endArrow=none;html=1;rounded=0;" edge="1" parent="1" source="oGTQj1oGCnuFLCIUEzCe-79" target="oGTQj1oGCnuFLCIUEzCe-72">
          <mxGeometry width="50" height="50" relative="1" as="geometry">
            <mxPoint x="774" y="718" as="sourcePoint" />
            <mxPoint x="853" y="655" as="targetPoint" />
          </mxGeometry>
        </mxCell>
        <mxCell id="oGTQj1oGCnuFLCIUEzCe-82" value="" style="endArrow=none;html=1;rounded=0;" edge="1" parent="1" source="oGTQj1oGCnuFLCIUEzCe-80" target="oGTQj1oGCnuFLCIUEzCe-72">
          <mxGeometry width="50" height="50" relative="1" as="geometry">
            <mxPoint x="784" y="728" as="sourcePoint" />
            <mxPoint x="863" y="665" as="targetPoint" />
          </mxGeometry>
        </mxCell>
        <mxCell id="oGTQj1oGCnuFLCIUEzCe-100" value="&lt;u&gt;TransactionID&lt;/u&gt;" style="ellipse;whiteSpace=wrap;html=1;" vertex="1" parent="1">
          <mxGeometry x="880" y="690" width="105" height="50" as="geometry" />
        </mxCell>
        <mxCell id="oGTQj1oGCnuFLCIUEzCe-101" value="&lt;i&gt;MemberID&lt;/i&gt;" style="ellipse;whiteSpace=wrap;html=1;" vertex="1" parent="1">
          <mxGeometry x="1030" y="695" width="105" height="50" as="geometry" />
        </mxCell>
        <mxCell id="oGTQj1oGCnuFLCIUEzCe-102" value="Amount" style="ellipse;whiteSpace=wrap;html=1;" vertex="1" parent="1">
          <mxGeometry x="1015" y="760" width="105" height="50" as="geometry" />
        </mxCell>
        <mxCell id="oGTQj1oGCnuFLCIUEzCe-103" value="Date" style="ellipse;whiteSpace=wrap;html=1;" vertex="1" parent="1">
          <mxGeometry x="1080" y="825" width="105" height="50" as="geometry" />
        </mxCell>
        <mxCell id="oGTQj1oGCnuFLCIUEzCe-104" value="Payment Method" style="ellipse;whiteSpace=wrap;html=1;" vertex="1" parent="1">
          <mxGeometry x="945" y="840" width="105" height="50" as="geometry" />
        </mxCell>
        <mxCell id="oGTQj1oGCnuFLCIUEzCe-105" value="Service" style="ellipse;whiteSpace=wrap;html=1;" vertex="1" parent="1">
          <mxGeometry x="825" y="842.5" width="105" height="50" as="geometry" />
        </mxCell>
        <mxCell id="oGTQj1oGCnuFLCIUEzCe-106" value="" style="endArrow=none;html=1;rounded=0;" edge="1" parent="1" source="oGTQj1oGCnuFLCIUEzCe-9" target="oGTQj1oGCnuFLCIUEzCe-100">
          <mxGeometry width="50" height="50" relative="1" as="geometry">
            <mxPoint x="790" y="932.5" as="sourcePoint" />
            <mxPoint x="840" y="882.5" as="targetPoint" />
          </mxGeometry>
        </mxCell>
        <mxCell id="oGTQj1oGCnuFLCIUEzCe-107" value="" style="endArrow=none;html=1;rounded=0;" edge="1" parent="1" source="oGTQj1oGCnuFLCIUEzCe-9" target="oGTQj1oGCnuFLCIUEzCe-101">
          <mxGeometry width="50" height="50" relative="1" as="geometry">
            <mxPoint x="817" y="752.5" as="sourcePoint" />
            <mxPoint x="871" y="717.5" as="targetPoint" />
          </mxGeometry>
        </mxCell>
        <mxCell id="oGTQj1oGCnuFLCIUEzCe-108" value="" style="endArrow=none;html=1;rounded=0;" edge="1" parent="1" source="oGTQj1oGCnuFLCIUEzCe-9" target="oGTQj1oGCnuFLCIUEzCe-102">
          <mxGeometry width="50" height="50" relative="1" as="geometry">
            <mxPoint x="827" y="762.5" as="sourcePoint" />
            <mxPoint x="881" y="727.5" as="targetPoint" />
          </mxGeometry>
        </mxCell>
        <mxCell id="oGTQj1oGCnuFLCIUEzCe-109" value="" style="endArrow=none;html=1;rounded=0;" edge="1" parent="1" source="oGTQj1oGCnuFLCIUEzCe-9" target="oGTQj1oGCnuFLCIUEzCe-103">
          <mxGeometry width="50" height="50" relative="1" as="geometry">
            <mxPoint x="830" y="774.5" as="sourcePoint" />
            <mxPoint x="1062" y="744.5" as="targetPoint" />
          </mxGeometry>
        </mxCell>
        <mxCell id="oGTQj1oGCnuFLCIUEzCe-110" value="" style="endArrow=none;html=1;rounded=0;" edge="1" parent="1" source="oGTQj1oGCnuFLCIUEzCe-9" target="oGTQj1oGCnuFLCIUEzCe-104">
          <mxGeometry width="50" height="50" relative="1" as="geometry">
            <mxPoint x="840" y="784.5" as="sourcePoint" />
            <mxPoint x="1072" y="754.5" as="targetPoint" />
          </mxGeometry>
        </mxCell>
        <mxCell id="oGTQj1oGCnuFLCIUEzCe-111" value="" style="endArrow=none;html=1;rounded=0;" edge="1" parent="1" source="oGTQj1oGCnuFLCIUEzCe-9" target="oGTQj1oGCnuFLCIUEzCe-105">
          <mxGeometry width="50" height="50" relative="1" as="geometry">
            <mxPoint x="850" y="794.5" as="sourcePoint" />
            <mxPoint x="1082" y="764.5" as="targetPoint" />
          </mxGeometry>
        </mxCell>
        <mxCell id="oGTQj1oGCnuFLCIUEzCe-112" value="&lt;u&gt;EquipmentID&lt;/u&gt;" style="ellipse;whiteSpace=wrap;html=1;" vertex="1" parent="1">
          <mxGeometry x="450" y="1155" width="105" height="50" as="geometry" />
        </mxCell>
        <mxCell id="oGTQj1oGCnuFLCIUEzCe-114" value="Kind" style="ellipse;whiteSpace=wrap;html=1;" vertex="1" parent="1">
          <mxGeometry x="555" y="1030" width="105" height="50" as="geometry" />
        </mxCell>
        <mxCell id="oGTQj1oGCnuFLCIUEzCe-115" value="Maintenance Schedule" style="ellipse;whiteSpace=wrap;html=1;" vertex="1" parent="1">
          <mxGeometry x="490" y="1090" width="105" height="50" as="geometry" />
        </mxCell>
        <mxCell id="oGTQj1oGCnuFLCIUEzCe-116" value="location" style="ellipse;whiteSpace=wrap;html=1;" vertex="1" parent="1">
          <mxGeometry x="345" y="1115" width="105" height="50" as="geometry" />
        </mxCell>
        <mxCell id="oGTQj1oGCnuFLCIUEzCe-117" value="" style="endArrow=none;html=1;rounded=0;" edge="1" parent="1" source="oGTQj1oGCnuFLCIUEzCe-5" target="oGTQj1oGCnuFLCIUEzCe-112">
          <mxGeometry width="50" height="50" relative="1" as="geometry">
            <mxPoint x="600.568181818182" y="990" as="sourcePoint" />
            <mxPoint x="500" y="1010" as="targetPoint" />
          </mxGeometry>
        </mxCell>
        <mxCell id="oGTQj1oGCnuFLCIUEzCe-118" value="" style="endArrow=none;html=1;rounded=0;" edge="1" parent="1" source="oGTQj1oGCnuFLCIUEzCe-5" target="oGTQj1oGCnuFLCIUEzCe-114">
          <mxGeometry width="50" height="50" relative="1" as="geometry">
            <mxPoint x="650" y="981.2658227848101" as="sourcePoint" />
            <mxPoint x="695" y="914" as="targetPoint" />
          </mxGeometry>
        </mxCell>
        <mxCell id="oGTQj1oGCnuFLCIUEzCe-119" value="" style="endArrow=none;html=1;rounded=0;" edge="1" parent="1" source="oGTQj1oGCnuFLCIUEzCe-5" target="oGTQj1oGCnuFLCIUEzCe-115">
          <mxGeometry width="50" height="50" relative="1" as="geometry">
            <mxPoint x="617.65625" y="990" as="sourcePoint" />
            <mxPoint x="705" y="924" as="targetPoint" />
          </mxGeometry>
        </mxCell>
        <mxCell id="oGTQj1oGCnuFLCIUEzCe-120" value="" style="endArrow=none;html=1;rounded=0;" edge="1" parent="1" source="oGTQj1oGCnuFLCIUEzCe-5" target="oGTQj1oGCnuFLCIUEzCe-116">
          <mxGeometry width="50" height="50" relative="1" as="geometry">
            <mxPoint x="587.0833333333339" y="990" as="sourcePoint" />
            <mxPoint x="715" y="934" as="targetPoint" />
          </mxGeometry>
        </mxCell>
        <mxCell id="oGTQj1oGCnuFLCIUEzCe-121" value="Total Points" style="ellipse;whiteSpace=wrap;html=1;" vertex="1" parent="1">
          <mxGeometry x="789" y="60" width="105" height="50" as="geometry" />
        </mxCell>
        <mxCell id="oGTQj1oGCnuFLCIUEzCe-122" value="Points per&amp;nbsp;Transaction" style="ellipse;whiteSpace=wrap;html=1;" vertex="1" parent="1">
          <mxGeometry x="910" y="75" width="105" height="50" as="geometry" />
        </mxCell>
        <mxCell id="oGTQj1oGCnuFLCIUEzCe-123" value="Redeemed" style="ellipse;whiteSpace=wrap;html=1;" vertex="1" parent="1">
          <mxGeometry x="980" y="125" width="105" height="50" as="geometry" />
        </mxCell>
        <mxCell id="oGTQj1oGCnuFLCIUEzCe-125" value="" style="endArrow=none;html=1;rounded=0;" edge="1" parent="1" source="oGTQj1oGCnuFLCIUEzCe-2" target="oGTQj1oGCnuFLCIUEzCe-121">
          <mxGeometry width="50" height="50" relative="1" as="geometry">
            <mxPoint x="680" y="295" as="sourcePoint" />
            <mxPoint x="730" y="245" as="targetPoint" />
          </mxGeometry>
        </mxCell>
        <mxCell id="oGTQj1oGCnuFLCIUEzCe-127" value="" style="endArrow=none;html=1;rounded=0;" edge="1" parent="1" source="oGTQj1oGCnuFLCIUEzCe-2" target="oGTQj1oGCnuFLCIUEzCe-122">
          <mxGeometry width="50" height="50" relative="1" as="geometry">
            <mxPoint x="828" y="195" as="sourcePoint" />
            <mxPoint x="846" y="120" as="targetPoint" />
          </mxGeometry>
        </mxCell>
        <mxCell id="oGTQj1oGCnuFLCIUEzCe-128" value="" style="endArrow=none;html=1;rounded=0;" edge="1" parent="1" source="oGTQj1oGCnuFLCIUEzCe-2" target="oGTQj1oGCnuFLCIUEzCe-123">
          <mxGeometry width="50" height="50" relative="1" as="geometry">
            <mxPoint x="840" y="195" as="sourcePoint" />
            <mxPoint x="856" y="130" as="targetPoint" />
          </mxGeometry>
        </mxCell>
        <mxCell id="oGTQj1oGCnuFLCIUEzCe-130" value="train" style="rhombus;whiteSpace=wrap;html=1;" vertex="1" parent="1">
          <mxGeometry x="550" y="365" width="80" height="80" as="geometry" />
        </mxCell>
        <mxCell id="oGTQj1oGCnuFLCIUEzCe-133" value="" style="shape=link;html=1;rounded=0;" edge="1" parent="1" source="oGTQj1oGCnuFLCIUEzCe-3" target="oGTQj1oGCnuFLCIUEzCe-130">
          <mxGeometry width="100" relative="1" as="geometry">
            <mxPoint x="210" y="310" as="sourcePoint" />
            <mxPoint x="310" y="310" as="targetPoint" />
          </mxGeometry>
        </mxCell>
        <mxCell id="oGTQj1oGCnuFLCIUEzCe-303" value="1" style="edgeLabel;html=1;align=center;verticalAlign=middle;resizable=0;points=[];" vertex="1" connectable="0" parent="oGTQj1oGCnuFLCIUEzCe-133">
          <mxGeometry x="-0.9132" relative="1" as="geometry">
            <mxPoint as="offset" />
          </mxGeometry>
        </mxCell>
        <mxCell id="oGTQj1oGCnuFLCIUEzCe-137" value="&lt;h1&gt;&lt;span style=&quot;background-color: initial;&quot;&gt;Assumptions&lt;/span&gt;&lt;/h1&gt;&lt;div&gt;&lt;font style=&quot;&quot;&gt;&lt;div style=&quot;&quot;&gt;&lt;br&gt;&lt;/div&gt;&lt;div style=&quot;&quot;&gt;&lt;span style=&quot;font-size: 18px;&quot;&gt;1. Every member can train in n training sessions.&lt;/span&gt;&lt;/div&gt;&lt;/font&gt;&lt;/div&gt;&lt;div&gt;&lt;span style=&quot;font-weight: 400;&quot;&gt;&lt;font style=&quot;font-size: 18px;&quot;&gt;2. All trainer have to train in a session to be trainers.&lt;/font&gt;&lt;/span&gt;&lt;/div&gt;&lt;div&gt;&lt;span style=&quot;font-weight: 400;&quot;&gt;&lt;font style=&quot;font-size: 18px;&quot;&gt;3. All training sessions have to have members and trainers.&lt;/font&gt;&lt;/span&gt;&lt;/div&gt;&lt;div&gt;&lt;span style=&quot;font-weight: 400;&quot;&gt;&lt;font style=&quot;font-size: 18px;&quot;&gt;4. every member can register in many class and all classes can have many members.&lt;/font&gt;&lt;/span&gt;&lt;/div&gt;&lt;div&gt;&lt;font style=&quot;font-size: 18px;&quot;&gt;5. Each Member participates in the Loyalty Program and The program gets points for each Member.&lt;/font&gt;&lt;/div&gt;&lt;div&gt;&lt;font style=&quot;font-size: 18px;&quot;&gt;6.Administrative Staff manage the booking and scheduling of Rooms.&lt;/font&gt;&lt;/div&gt;&lt;div&gt;&lt;font style=&quot;font-size: 18px;&quot;&gt;7.&amp;nbsp;Each Fitness Class is held in one Room and each Room host multiple Fitness Classes.&lt;/font&gt;&lt;/div&gt;&lt;div&gt;&lt;font style=&quot;font-size: 18px;&quot;&gt;8.Each Member makes multiple Billing and Payment transactions for services&lt;/font&gt;&lt;/div&gt;" style="text;html=1;strokeColor=none;fillColor=none;spacing=5;spacingTop=-20;whiteSpace=wrap;overflow=hidden;rounded=0;" vertex="1" parent="1">
          <mxGeometry x="1360" y="55" width="500" height="440" as="geometry" />
        </mxCell>
        <mxCell id="oGTQj1oGCnuFLCIUEzCe-138" value="trained" style="rhombus;whiteSpace=wrap;html=1;" vertex="1" parent="1">
          <mxGeometry x="610" y="290" width="80" height="80" as="geometry" />
        </mxCell>
        <mxCell id="oGTQj1oGCnuFLCIUEzCe-139" value="" style="endArrow=none;html=1;rounded=0;" edge="1" parent="1" source="oGTQj1oGCnuFLCIUEzCe-138" target="oGTQj1oGCnuFLCIUEzCe-1">
          <mxGeometry width="50" height="50" relative="1" as="geometry">
            <mxPoint x="353" y="677" as="sourcePoint" />
            <mxPoint x="130" y="130" as="targetPoint" />
          </mxGeometry>
        </mxCell>
        <mxCell id="oGTQj1oGCnuFLCIUEzCe-140" value="1" style="edgeLabel;html=1;align=center;verticalAlign=middle;resizable=0;points=[];" vertex="1" connectable="0" parent="oGTQj1oGCnuFLCIUEzCe-139">
          <mxGeometry x="0.6703" y="-1" relative="1" as="geometry">
            <mxPoint x="8" y="-3" as="offset" />
          </mxGeometry>
        </mxCell>
        <mxCell id="oGTQj1oGCnuFLCIUEzCe-141" value="" style="shape=link;html=1;rounded=0;" edge="1" parent="1" source="oGTQj1oGCnuFLCIUEzCe-138" target="oGTQj1oGCnuFLCIUEzCe-7">
          <mxGeometry width="100" relative="1" as="geometry">
            <mxPoint x="610" y="185" as="sourcePoint" />
            <mxPoint x="710" y="185" as="targetPoint" />
          </mxGeometry>
        </mxCell>
        <mxCell id="oGTQj1oGCnuFLCIUEzCe-142" value="n" style="edgeLabel;html=1;align=center;verticalAlign=middle;resizable=0;points=[];" vertex="1" connectable="0" parent="oGTQj1oGCnuFLCIUEzCe-141">
          <mxGeometry x="0.9286" y="6" relative="1" as="geometry">
            <mxPoint x="10" y="2" as="offset" />
          </mxGeometry>
        </mxCell>
        <mxCell id="oGTQj1oGCnuFLCIUEzCe-144" value="" style="shape=link;html=1;rounded=0;" edge="1" parent="1" source="oGTQj1oGCnuFLCIUEzCe-130" target="oGTQj1oGCnuFLCIUEzCe-7">
          <mxGeometry width="100" relative="1" as="geometry">
            <mxPoint x="635" y="180" as="sourcePoint" />
            <mxPoint x="873" y="595" as="targetPoint" />
          </mxGeometry>
        </mxCell>
        <mxCell id="oGTQj1oGCnuFLCIUEzCe-145" value="n" style="edgeLabel;html=1;align=center;verticalAlign=middle;resizable=0;points=[];" vertex="1" connectable="0" parent="oGTQj1oGCnuFLCIUEzCe-144">
          <mxGeometry x="0.9286" y="6" relative="1" as="geometry">
            <mxPoint x="10" y="2" as="offset" />
          </mxGeometry>
        </mxCell>
        <mxCell id="oGTQj1oGCnuFLCIUEzCe-146" value="register" style="rhombus;whiteSpace=wrap;html=1;" vertex="1" parent="1">
          <mxGeometry x="185" y="570" width="80" height="80" as="geometry" />
        </mxCell>
        <mxCell id="oGTQj1oGCnuFLCIUEzCe-147" value="" style="endArrow=none;html=1;rounded=0;" edge="1" parent="1" target="oGTQj1oGCnuFLCIUEzCe-1">
          <mxGeometry width="50" height="50" relative="1" as="geometry">
            <mxPoint x="229.10818181818198" y="565.0018181818181" as="sourcePoint" />
            <mxPoint x="110.00428571428577" y="101.82" as="targetPoint" />
          </mxGeometry>
        </mxCell>
        <mxCell id="oGTQj1oGCnuFLCIUEzCe-150" value="n" style="edgeLabel;html=1;align=center;verticalAlign=middle;resizable=0;points=[];" vertex="1" connectable="0" parent="oGTQj1oGCnuFLCIUEzCe-147">
          <mxGeometry x="0.7973" y="5" relative="1" as="geometry">
            <mxPoint x="-16" y="-8" as="offset" />
          </mxGeometry>
        </mxCell>
        <mxCell id="oGTQj1oGCnuFLCIUEzCe-148" value="" style="shape=link;html=1;rounded=0;" edge="1" parent="1" source="oGTQj1oGCnuFLCIUEzCe-146" target="oGTQj1oGCnuFLCIUEzCe-4">
          <mxGeometry width="100" relative="1" as="geometry">
            <mxPoint x="270" y="460" as="sourcePoint" />
            <mxPoint x="673" y="900" as="targetPoint" />
          </mxGeometry>
        </mxCell>
        <mxCell id="oGTQj1oGCnuFLCIUEzCe-149" value="n" style="edgeLabel;html=1;align=center;verticalAlign=middle;resizable=0;points=[];" vertex="1" connectable="0" parent="oGTQj1oGCnuFLCIUEzCe-148">
          <mxGeometry x="0.9286" y="6" relative="1" as="geometry">
            <mxPoint x="14" as="offset" />
          </mxGeometry>
        </mxCell>
        <mxCell id="oGTQj1oGCnuFLCIUEzCe-152" value="Participates" style="rhombus;whiteSpace=wrap;html=1;" vertex="1" parent="1">
          <mxGeometry x="550" y="150" width="80" height="80" as="geometry" />
        </mxCell>
        <mxCell id="oGTQj1oGCnuFLCIUEzCe-153" value="" style="endArrow=none;html=1;rounded=0;" edge="1" parent="1" source="oGTQj1oGCnuFLCIUEzCe-152" target="oGTQj1oGCnuFLCIUEzCe-1">
          <mxGeometry width="50" height="50" relative="1" as="geometry">
            <mxPoint x="401" y="439" as="sourcePoint" />
            <mxPoint x="126" y="125" as="targetPoint" />
          </mxGeometry>
        </mxCell>
        <mxCell id="oGTQj1oGCnuFLCIUEzCe-154" value="1" style="edgeLabel;html=1;align=center;verticalAlign=middle;resizable=0;points=[];" vertex="1" connectable="0" parent="oGTQj1oGCnuFLCIUEzCe-153">
          <mxGeometry x="0.6703" y="-1" relative="1" as="geometry">
            <mxPoint x="8" y="-3" as="offset" />
          </mxGeometry>
        </mxCell>
        <mxCell id="oGTQj1oGCnuFLCIUEzCe-155" value="" style="shape=link;html=1;rounded=0;" edge="1" parent="1" source="oGTQj1oGCnuFLCIUEzCe-152" target="oGTQj1oGCnuFLCIUEzCe-2">
          <mxGeometry width="100" relative="1" as="geometry">
            <mxPoint x="260" y="270" as="sourcePoint" />
            <mxPoint x="360" y="270" as="targetPoint" />
          </mxGeometry>
        </mxCell>
        <mxCell id="oGTQj1oGCnuFLCIUEzCe-156" value="1" style="edgeLabel;html=1;align=center;verticalAlign=middle;resizable=0;points=[];" vertex="1" connectable="0" parent="oGTQj1oGCnuFLCIUEzCe-155">
          <mxGeometry x="0.7585" relative="1" as="geometry">
            <mxPoint x="-15" y="-16" as="offset" />
          </mxGeometry>
        </mxCell>
        <mxCell id="oGTQj1oGCnuFLCIUEzCe-161" value="manage" style="rhombus;whiteSpace=wrap;html=1;" vertex="1" parent="1">
          <mxGeometry x="265" y="727.5" width="80" height="80" as="geometry" />
        </mxCell>
        <mxCell id="oGTQj1oGCnuFLCIUEzCe-162" value="" style="endArrow=none;html=1;rounded=0;" edge="1" parent="1" source="oGTQj1oGCnuFLCIUEzCe-161" target="oGTQj1oGCnuFLCIUEzCe-11">
          <mxGeometry width="50" height="50" relative="1" as="geometry">
            <mxPoint x="567" y="193" as="sourcePoint" />
            <mxPoint x="160" y="108" as="targetPoint" />
          </mxGeometry>
        </mxCell>
        <mxCell id="oGTQj1oGCnuFLCIUEzCe-163" value="1" style="edgeLabel;html=1;align=center;verticalAlign=middle;resizable=0;points=[];" vertex="1" connectable="0" parent="oGTQj1oGCnuFLCIUEzCe-162">
          <mxGeometry x="0.6703" y="-1" relative="1" as="geometry">
            <mxPoint x="31" y="-104" as="offset" />
          </mxGeometry>
        </mxCell>
        <mxCell id="oGTQj1oGCnuFLCIUEzCe-164" value="" style="shape=link;html=1;rounded=0;" edge="1" parent="1" source="oGTQj1oGCnuFLCIUEzCe-161" target="oGTQj1oGCnuFLCIUEzCe-5">
          <mxGeometry width="100" relative="1" as="geometry">
            <mxPoint x="226" y="431" as="sourcePoint" />
            <mxPoint x="76" y="710" as="targetPoint" />
          </mxGeometry>
        </mxCell>
        <mxCell id="oGTQj1oGCnuFLCIUEzCe-165" value="n" style="edgeLabel;html=1;align=center;verticalAlign=middle;resizable=0;points=[];" vertex="1" connectable="0" parent="oGTQj1oGCnuFLCIUEzCe-164">
          <mxGeometry x="0.9286" y="6" relative="1" as="geometry">
            <mxPoint x="2" y="-7" as="offset" />
          </mxGeometry>
        </mxCell>
        <mxCell id="oGTQj1oGCnuFLCIUEzCe-166" value="held in" style="rhombus;whiteSpace=wrap;html=1;" vertex="1" parent="1">
          <mxGeometry x="80.5" y="825" width="80" height="80" as="geometry" />
        </mxCell>
        <mxCell id="oGTQj1oGCnuFLCIUEzCe-167" value="" style="shape=link;html=1;rounded=0;" edge="1" parent="1" source="oGTQj1oGCnuFLCIUEzCe-4" target="oGTQj1oGCnuFLCIUEzCe-166">
          <mxGeometry width="100" relative="1" as="geometry">
            <mxPoint x="360" y="790" as="sourcePoint" />
            <mxPoint x="460" y="790" as="targetPoint" />
          </mxGeometry>
        </mxCell>
        <mxCell id="oGTQj1oGCnuFLCIUEzCe-170" value="n" style="edgeLabel;html=1;align=center;verticalAlign=middle;resizable=0;points=[];" vertex="1" connectable="0" parent="oGTQj1oGCnuFLCIUEzCe-167">
          <mxGeometry x="-0.6708" y="-1" relative="1" as="geometry">
            <mxPoint x="-12" as="offset" />
          </mxGeometry>
        </mxCell>
        <mxCell id="oGTQj1oGCnuFLCIUEzCe-168" value="" style="endArrow=none;html=1;rounded=0;" edge="1" parent="1" source="oGTQj1oGCnuFLCIUEzCe-166" target="oGTQj1oGCnuFLCIUEzCe-5">
          <mxGeometry width="50" height="50" relative="1" as="geometry">
            <mxPoint x="380" y="820" as="sourcePoint" />
            <mxPoint x="430" y="770" as="targetPoint" />
          </mxGeometry>
        </mxCell>
        <mxCell id="oGTQj1oGCnuFLCIUEzCe-169" value="1" style="edgeLabel;html=1;align=center;verticalAlign=middle;resizable=0;points=[];" vertex="1" connectable="0" parent="oGTQj1oGCnuFLCIUEzCe-168">
          <mxGeometry x="0.5941" y="1" relative="1" as="geometry">
            <mxPoint x="8" y="1" as="offset" />
          </mxGeometry>
        </mxCell>
        <mxCell id="oGTQj1oGCnuFLCIUEzCe-176" value="1" style="text;html=1;align=center;verticalAlign=middle;resizable=0;points=[];autosize=1;strokeColor=none;fillColor=none;" vertex="1" parent="1">
          <mxGeometry x="315" y="938" width="30" height="30" as="geometry" />
        </mxCell>
        <mxCell id="oGTQj1oGCnuFLCIUEzCe-182" value="makes" style="rhombus;whiteSpace=wrap;html=1;" vertex="1" parent="1">
          <mxGeometry x="562.5" y="610" width="80" height="80" as="geometry" />
        </mxCell>
        <mxCell id="oGTQj1oGCnuFLCIUEzCe-183" value="" style="endArrow=none;html=1;rounded=0;" edge="1" parent="1" source="oGTQj1oGCnuFLCIUEzCe-182" target="oGTQj1oGCnuFLCIUEzCe-1">
          <mxGeometry width="50" height="50" relative="1" as="geometry">
            <mxPoint x="632" y="328" as="sourcePoint" />
            <mxPoint x="160" y="121" as="targetPoint" />
          </mxGeometry>
        </mxCell>
        <mxCell id="oGTQj1oGCnuFLCIUEzCe-184" value="1" style="edgeLabel;html=1;align=center;verticalAlign=middle;resizable=0;points=[];" vertex="1" connectable="0" parent="oGTQj1oGCnuFLCIUEzCe-183">
          <mxGeometry x="0.6703" y="-1" relative="1" as="geometry">
            <mxPoint x="8" y="-3" as="offset" />
          </mxGeometry>
        </mxCell>
        <mxCell id="oGTQj1oGCnuFLCIUEzCe-185" value="" style="shape=link;html=1;rounded=0;" edge="1" parent="1" source="oGTQj1oGCnuFLCIUEzCe-182" target="oGTQj1oGCnuFLCIUEzCe-9">
          <mxGeometry width="100" relative="1" as="geometry">
            <mxPoint x="460" y="470" as="sourcePoint" />
            <mxPoint x="560" y="470" as="targetPoint" />
          </mxGeometry>
        </mxCell>
        <mxCell id="oGTQj1oGCnuFLCIUEzCe-186" value="n" style="edgeLabel;html=1;align=center;verticalAlign=middle;resizable=0;points=[];" vertex="1" connectable="0" parent="oGTQj1oGCnuFLCIUEzCe-185">
          <mxGeometry x="0.5262" y="4" relative="1" as="geometry">
            <mxPoint x="9" y="-2" as="offset" />
          </mxGeometry>
        </mxCell>
        <mxCell id="oGTQj1oGCnuFLCIUEzCe-229" value="member" style="shape=table;startSize=30;container=1;collapsible=0;childLayout=tableLayout;" vertex="1" parent="1">
          <mxGeometry x="-2560" y="442.5" width="420" height="70" as="geometry" />
        </mxCell>
        <mxCell id="oGTQj1oGCnuFLCIUEzCe-230" value="" style="shape=tableRow;horizontal=0;startSize=0;swimlaneHead=0;swimlaneBody=0;strokeColor=inherit;top=0;left=0;bottom=0;right=0;collapsible=0;dropTarget=0;fillColor=none;points=[[0,0.5],[1,0.5]];portConstraint=eastwest;" vertex="1" parent="oGTQj1oGCnuFLCIUEzCe-229">
          <mxGeometry y="30" width="420" height="40" as="geometry" />
        </mxCell>
        <mxCell id="oGTQj1oGCnuFLCIUEzCe-231" value="&lt;u&gt;MemberID&lt;/u&gt;" style="shape=partialRectangle;html=1;whiteSpace=wrap;connectable=0;strokeColor=inherit;overflow=hidden;fillColor=none;top=0;left=0;bottom=0;right=0;pointerEvents=1;" vertex="1" parent="oGTQj1oGCnuFLCIUEzCe-230">
          <mxGeometry width="60" height="40" as="geometry">
            <mxRectangle width="60" height="40" as="alternateBounds" />
          </mxGeometry>
        </mxCell>
        <mxCell id="oGTQj1oGCnuFLCIUEzCe-232" value="Name" style="shape=partialRectangle;html=1;whiteSpace=wrap;connectable=0;strokeColor=inherit;overflow=hidden;fillColor=none;top=0;left=0;bottom=0;right=0;pointerEvents=1;" vertex="1" parent="oGTQj1oGCnuFLCIUEzCe-230">
          <mxGeometry x="60" width="60" height="40" as="geometry">
            <mxRectangle width="60" height="40" as="alternateBounds" />
          </mxGeometry>
        </mxCell>
        <mxCell id="oGTQj1oGCnuFLCIUEzCe-233" value="Email" style="shape=partialRectangle;html=1;whiteSpace=wrap;connectable=0;strokeColor=inherit;overflow=hidden;fillColor=none;top=0;left=0;bottom=0;right=0;pointerEvents=1;" vertex="1" parent="oGTQj1oGCnuFLCIUEzCe-230">
          <mxGeometry x="120" width="60" height="40" as="geometry">
            <mxRectangle width="60" height="40" as="alternateBounds" />
          </mxGeometry>
        </mxCell>
        <mxCell id="oGTQj1oGCnuFLCIUEzCe-234" value="Date of Birth" style="shape=partialRectangle;html=1;whiteSpace=wrap;connectable=0;strokeColor=inherit;overflow=hidden;fillColor=none;top=0;left=0;bottom=0;right=0;pointerEvents=1;" vertex="1" parent="oGTQj1oGCnuFLCIUEzCe-230">
          <mxGeometry x="180" width="60" height="40" as="geometry">
            <mxRectangle width="60" height="40" as="alternateBounds" />
          </mxGeometry>
        </mxCell>
        <mxCell id="oGTQj1oGCnuFLCIUEzCe-235" value="Fitness Goals" style="shape=partialRectangle;html=1;whiteSpace=wrap;connectable=0;strokeColor=inherit;overflow=hidden;fillColor=none;top=0;left=0;bottom=0;right=0;pointerEvents=1;" vertex="1" parent="oGTQj1oGCnuFLCIUEzCe-230">
          <mxGeometry x="240" width="60" height="40" as="geometry">
            <mxRectangle width="60" height="40" as="alternateBounds" />
          </mxGeometry>
        </mxCell>
        <mxCell id="oGTQj1oGCnuFLCIUEzCe-236" value="weight" style="shape=partialRectangle;html=1;whiteSpace=wrap;connectable=0;strokeColor=inherit;overflow=hidden;fillColor=none;top=0;left=0;bottom=0;right=0;pointerEvents=1;" vertex="1" parent="oGTQj1oGCnuFLCIUEzCe-230">
          <mxGeometry x="300" width="60" height="40" as="geometry">
            <mxRectangle width="60" height="40" as="alternateBounds" />
          </mxGeometry>
        </mxCell>
        <mxCell id="oGTQj1oGCnuFLCIUEzCe-237" value="Loyalty&amp;nbsp;" style="shape=partialRectangle;html=1;whiteSpace=wrap;connectable=0;strokeColor=inherit;overflow=hidden;fillColor=none;top=0;left=0;bottom=0;right=0;pointerEvents=1;" vertex="1" parent="oGTQj1oGCnuFLCIUEzCe-230">
          <mxGeometry x="360" width="60" height="40" as="geometry">
            <mxRectangle width="60" height="40" as="alternateBounds" />
          </mxGeometry>
        </mxCell>
        <mxCell id="oGTQj1oGCnuFLCIUEzCe-238" value="Trainer" style="shape=table;startSize=30;container=1;collapsible=0;childLayout=tableLayout;" vertex="1" parent="1">
          <mxGeometry x="-2170" y="742.5" width="180" height="70" as="geometry" />
        </mxCell>
        <mxCell id="oGTQj1oGCnuFLCIUEzCe-239" value="" style="shape=tableRow;horizontal=0;startSize=0;swimlaneHead=0;swimlaneBody=0;strokeColor=inherit;top=0;left=0;bottom=0;right=0;collapsible=0;dropTarget=0;fillColor=none;points=[[0,0.5],[1,0.5]];portConstraint=eastwest;" vertex="1" parent="oGTQj1oGCnuFLCIUEzCe-238">
          <mxGeometry y="30" width="180" height="40" as="geometry" />
        </mxCell>
        <mxCell id="oGTQj1oGCnuFLCIUEzCe-240" value="&lt;u&gt;TrainerID&lt;/u&gt;" style="shape=partialRectangle;html=1;whiteSpace=wrap;connectable=0;strokeColor=inherit;overflow=hidden;fillColor=none;top=0;left=0;bottom=0;right=0;pointerEvents=1;" vertex="1" parent="oGTQj1oGCnuFLCIUEzCe-239">
          <mxGeometry width="60" height="40" as="geometry">
            <mxRectangle width="60" height="40" as="alternateBounds" />
          </mxGeometry>
        </mxCell>
        <mxCell id="oGTQj1oGCnuFLCIUEzCe-241" value="Name" style="shape=partialRectangle;html=1;whiteSpace=wrap;connectable=0;strokeColor=inherit;overflow=hidden;fillColor=none;top=0;left=0;bottom=0;right=0;pointerEvents=1;" vertex="1" parent="oGTQj1oGCnuFLCIUEzCe-239">
          <mxGeometry x="60" width="60" height="40" as="geometry">
            <mxRectangle width="60" height="40" as="alternateBounds" />
          </mxGeometry>
        </mxCell>
        <mxCell id="oGTQj1oGCnuFLCIUEzCe-242" value="Email" style="shape=partialRectangle;html=1;whiteSpace=wrap;connectable=0;strokeColor=inherit;overflow=hidden;fillColor=none;top=0;left=0;bottom=0;right=0;pointerEvents=1;" vertex="1" parent="oGTQj1oGCnuFLCIUEzCe-239">
          <mxGeometry x="120" width="60" height="40" as="geometry">
            <mxRectangle width="60" height="40" as="alternateBounds" />
          </mxGeometry>
        </mxCell>
        <mxCell id="oGTQj1oGCnuFLCIUEzCe-243" value="Fitness Class" style="shape=table;startSize=30;container=1;collapsible=0;childLayout=tableLayout;" vertex="1" parent="1">
          <mxGeometry x="-1695" y="342.5" width="337" height="70" as="geometry" />
        </mxCell>
        <mxCell id="oGTQj1oGCnuFLCIUEzCe-244" value="" style="shape=tableRow;horizontal=0;startSize=0;swimlaneHead=0;swimlaneBody=0;strokeColor=inherit;top=0;left=0;bottom=0;right=0;collapsible=0;dropTarget=0;fillColor=none;points=[[0,0.5],[1,0.5]];portConstraint=eastwest;" vertex="1" parent="oGTQj1oGCnuFLCIUEzCe-243">
          <mxGeometry y="30" width="337" height="40" as="geometry" />
        </mxCell>
        <mxCell id="oGTQj1oGCnuFLCIUEzCe-245" value="&lt;u&gt;ClassID&lt;/u&gt;" style="shape=partialRectangle;html=1;whiteSpace=wrap;connectable=0;strokeColor=inherit;overflow=hidden;fillColor=none;top=0;left=0;bottom=0;right=0;pointerEvents=1;" vertex="1" parent="oGTQj1oGCnuFLCIUEzCe-244">
          <mxGeometry width="68" height="40" as="geometry">
            <mxRectangle width="68" height="40" as="alternateBounds" />
          </mxGeometry>
        </mxCell>
        <mxCell id="oGTQj1oGCnuFLCIUEzCe-246" value="Name" style="shape=partialRectangle;html=1;whiteSpace=wrap;connectable=0;strokeColor=inherit;overflow=hidden;fillColor=none;top=0;left=0;bottom=0;right=0;pointerEvents=1;" vertex="1" parent="oGTQj1oGCnuFLCIUEzCe-244">
          <mxGeometry x="68" width="67" height="40" as="geometry">
            <mxRectangle width="67" height="40" as="alternateBounds" />
          </mxGeometry>
        </mxCell>
        <mxCell id="oGTQj1oGCnuFLCIUEzCe-247" value="Description" style="shape=partialRectangle;html=1;whiteSpace=wrap;connectable=0;strokeColor=inherit;overflow=hidden;fillColor=none;top=0;left=0;bottom=0;right=0;pointerEvents=1;" vertex="1" parent="oGTQj1oGCnuFLCIUEzCe-244">
          <mxGeometry x="135" width="68" height="40" as="geometry">
            <mxRectangle width="68" height="40" as="alternateBounds" />
          </mxGeometry>
        </mxCell>
        <mxCell id="oGTQj1oGCnuFLCIUEzCe-248" value="Capacity" style="shape=partialRectangle;html=1;whiteSpace=wrap;connectable=0;strokeColor=inherit;overflow=hidden;fillColor=none;top=0;left=0;bottom=0;right=0;pointerEvents=1;" vertex="1" parent="oGTQj1oGCnuFLCIUEzCe-244">
          <mxGeometry x="203" width="67" height="40" as="geometry">
            <mxRectangle width="67" height="40" as="alternateBounds" />
          </mxGeometry>
        </mxCell>
        <mxCell id="oGTQj1oGCnuFLCIUEzCe-324" value="location" style="shape=partialRectangle;html=1;whiteSpace=wrap;connectable=0;strokeColor=inherit;overflow=hidden;fillColor=none;top=0;left=0;bottom=0;right=0;pointerEvents=1;" vertex="1" parent="oGTQj1oGCnuFLCIUEzCe-244">
          <mxGeometry x="270" width="67" height="40" as="geometry">
            <mxRectangle width="67" height="40" as="alternateBounds" />
          </mxGeometry>
        </mxCell>
        <mxCell id="oGTQj1oGCnuFLCIUEzCe-249" value="Room" style="shape=table;startSize=30;container=1;collapsible=0;childLayout=tableLayout;" vertex="1" parent="1">
          <mxGeometry x="-1230" y="300" width="620" height="70" as="geometry" />
        </mxCell>
        <mxCell id="oGTQj1oGCnuFLCIUEzCe-250" value="" style="shape=tableRow;horizontal=0;startSize=0;swimlaneHead=0;swimlaneBody=0;strokeColor=inherit;top=0;left=0;bottom=0;right=0;collapsible=0;dropTarget=0;fillColor=none;points=[[0,0.5],[1,0.5]];portConstraint=eastwest;" vertex="1" parent="oGTQj1oGCnuFLCIUEzCe-249">
          <mxGeometry y="30" width="620" height="40" as="geometry" />
        </mxCell>
        <mxCell id="oGTQj1oGCnuFLCIUEzCe-251" value="&lt;u&gt;RoomID&lt;/u&gt;" style="shape=partialRectangle;html=1;whiteSpace=wrap;connectable=0;strokeColor=inherit;overflow=hidden;fillColor=none;top=0;left=0;bottom=0;right=0;pointerEvents=1;" vertex="1" parent="oGTQj1oGCnuFLCIUEzCe-250">
          <mxGeometry width="69" height="40" as="geometry">
            <mxRectangle width="69" height="40" as="alternateBounds" />
          </mxGeometry>
        </mxCell>
        <mxCell id="oGTQj1oGCnuFLCIUEzCe-331" value="&lt;u&gt;EquipmentID&lt;/u&gt;" style="shape=partialRectangle;html=1;whiteSpace=wrap;connectable=0;strokeColor=inherit;overflow=hidden;fillColor=none;top=0;left=0;bottom=0;right=0;pointerEvents=1;" vertex="1" parent="oGTQj1oGCnuFLCIUEzCe-250">
          <mxGeometry x="69" width="69" height="40" as="geometry">
            <mxRectangle width="69" height="40" as="alternateBounds" />
          </mxGeometry>
        </mxCell>
        <mxCell id="oGTQj1oGCnuFLCIUEzCe-252" value="Name" style="shape=partialRectangle;html=1;whiteSpace=wrap;connectable=0;strokeColor=inherit;overflow=hidden;fillColor=none;top=0;left=0;bottom=0;right=0;pointerEvents=1;" vertex="1" parent="oGTQj1oGCnuFLCIUEzCe-250">
          <mxGeometry x="138" width="69" height="40" as="geometry">
            <mxRectangle width="69" height="40" as="alternateBounds" />
          </mxGeometry>
        </mxCell>
        <mxCell id="oGTQj1oGCnuFLCIUEzCe-328" value="Kind" style="shape=partialRectangle;html=1;whiteSpace=wrap;connectable=0;strokeColor=inherit;overflow=hidden;fillColor=none;top=0;left=0;bottom=0;right=0;pointerEvents=1;" vertex="1" parent="oGTQj1oGCnuFLCIUEzCe-250">
          <mxGeometry x="207" width="69" height="40" as="geometry">
            <mxRectangle width="69" height="40" as="alternateBounds" />
          </mxGeometry>
        </mxCell>
        <mxCell id="oGTQj1oGCnuFLCIUEzCe-329" value="location" style="shape=partialRectangle;html=1;whiteSpace=wrap;connectable=0;strokeColor=inherit;overflow=hidden;fillColor=none;top=0;left=0;bottom=0;right=0;pointerEvents=1;" vertex="1" parent="oGTQj1oGCnuFLCIUEzCe-250">
          <mxGeometry x="276" width="68" height="40" as="geometry">
            <mxRectangle width="68" height="40" as="alternateBounds" />
          </mxGeometry>
        </mxCell>
        <mxCell id="oGTQj1oGCnuFLCIUEzCe-253" value="Capacity" style="shape=partialRectangle;html=1;whiteSpace=wrap;connectable=0;strokeColor=inherit;overflow=hidden;fillColor=none;top=0;left=0;bottom=0;right=0;pointerEvents=1;" vertex="1" parent="oGTQj1oGCnuFLCIUEzCe-250">
          <mxGeometry x="344" width="69" height="40" as="geometry">
            <mxRectangle width="69" height="40" as="alternateBounds" />
          </mxGeometry>
        </mxCell>
        <mxCell id="oGTQj1oGCnuFLCIUEzCe-254" value="room Available" style="shape=partialRectangle;html=1;whiteSpace=wrap;connectable=0;strokeColor=inherit;overflow=hidden;fillColor=none;top=0;left=0;bottom=0;right=0;pointerEvents=1;" vertex="1" parent="oGTQj1oGCnuFLCIUEzCe-250">
          <mxGeometry x="413" width="104" height="40" as="geometry">
            <mxRectangle width="104" height="40" as="alternateBounds" />
          </mxGeometry>
        </mxCell>
        <mxCell id="oGTQj1oGCnuFLCIUEzCe-330" value="Maintenance Schedule" style="shape=partialRectangle;html=1;whiteSpace=wrap;connectable=0;strokeColor=inherit;overflow=hidden;fillColor=none;top=0;left=0;bottom=0;right=0;pointerEvents=1;" vertex="1" parent="oGTQj1oGCnuFLCIUEzCe-250">
          <mxGeometry x="517" width="103" height="40" as="geometry">
            <mxRectangle width="103" height="40" as="alternateBounds" />
          </mxGeometry>
        </mxCell>
        <mxCell id="oGTQj1oGCnuFLCIUEzCe-256" value="Equipment" style="shape=table;startSize=30;container=1;collapsible=0;childLayout=tableLayout;" vertex="1" parent="1">
          <mxGeometry x="-3825" y="475" width="270" height="70" as="geometry" />
        </mxCell>
        <mxCell id="oGTQj1oGCnuFLCIUEzCe-257" value="" style="shape=tableRow;horizontal=0;startSize=0;swimlaneHead=0;swimlaneBody=0;strokeColor=inherit;top=0;left=0;bottom=0;right=0;collapsible=0;dropTarget=0;fillColor=none;points=[[0,0.5],[1,0.5]];portConstraint=eastwest;" vertex="1" parent="oGTQj1oGCnuFLCIUEzCe-256">
          <mxGeometry y="30" width="270" height="40" as="geometry" />
        </mxCell>
        <mxCell id="oGTQj1oGCnuFLCIUEzCe-258" value="&lt;u&gt;EquipmentID&lt;/u&gt;" style="shape=partialRectangle;html=1;whiteSpace=wrap;connectable=0;strokeColor=inherit;overflow=hidden;fillColor=none;top=0;left=0;bottom=0;right=0;pointerEvents=1;" vertex="1" parent="oGTQj1oGCnuFLCIUEzCe-257">
          <mxGeometry width="60" height="40" as="geometry">
            <mxRectangle width="60" height="40" as="alternateBounds" />
          </mxGeometry>
        </mxCell>
        <mxCell id="oGTQj1oGCnuFLCIUEzCe-259" value="Kind" style="shape=partialRectangle;html=1;whiteSpace=wrap;connectable=0;strokeColor=inherit;overflow=hidden;fillColor=none;top=0;left=0;bottom=0;right=0;pointerEvents=1;" vertex="1" parent="oGTQj1oGCnuFLCIUEzCe-257">
          <mxGeometry x="60" width="60" height="40" as="geometry">
            <mxRectangle width="60" height="40" as="alternateBounds" />
          </mxGeometry>
        </mxCell>
        <mxCell id="oGTQj1oGCnuFLCIUEzCe-260" value="location" style="shape=partialRectangle;html=1;whiteSpace=wrap;connectable=0;strokeColor=inherit;overflow=hidden;fillColor=none;top=0;left=0;bottom=0;right=0;pointerEvents=1;" vertex="1" parent="oGTQj1oGCnuFLCIUEzCe-257">
          <mxGeometry x="120" width="60" height="40" as="geometry">
            <mxRectangle width="60" height="40" as="alternateBounds" />
          </mxGeometry>
        </mxCell>
        <mxCell id="oGTQj1oGCnuFLCIUEzCe-261" value="Maintenance Schedule" style="shape=partialRectangle;html=1;whiteSpace=wrap;connectable=0;strokeColor=inherit;overflow=hidden;fillColor=none;top=0;left=0;bottom=0;right=0;pointerEvents=1;" vertex="1" parent="oGTQj1oGCnuFLCIUEzCe-257">
          <mxGeometry x="180" width="90" height="40" as="geometry">
            <mxRectangle width="90" height="40" as="alternateBounds" />
          </mxGeometry>
        </mxCell>
        <mxCell id="oGTQj1oGCnuFLCIUEzCe-263" value="Billing and Payment" style="shape=table;startSize=30;container=1;collapsible=0;childLayout=tableLayout;" vertex="1" parent="1">
          <mxGeometry x="-1830" y="82.5" width="460" height="70" as="geometry" />
        </mxCell>
        <mxCell id="oGTQj1oGCnuFLCIUEzCe-264" value="" style="shape=tableRow;horizontal=0;startSize=0;swimlaneHead=0;swimlaneBody=0;strokeColor=inherit;top=0;left=0;bottom=0;right=0;collapsible=0;dropTarget=0;fillColor=none;points=[[0,0.5],[1,0.5]];portConstraint=eastwest;" vertex="1" parent="oGTQj1oGCnuFLCIUEzCe-263">
          <mxGeometry y="30" width="460" height="40" as="geometry" />
        </mxCell>
        <mxCell id="oGTQj1oGCnuFLCIUEzCe-265" value="&lt;u&gt;TransactionID&lt;/u&gt;" style="shape=partialRectangle;html=1;whiteSpace=wrap;connectable=0;strokeColor=inherit;overflow=hidden;fillColor=none;top=0;left=0;bottom=0;right=0;pointerEvents=1;" vertex="1" parent="oGTQj1oGCnuFLCIUEzCe-264">
          <mxGeometry width="76" height="40" as="geometry">
            <mxRectangle width="76" height="40" as="alternateBounds" />
          </mxGeometry>
        </mxCell>
        <mxCell id="oGTQj1oGCnuFLCIUEzCe-266" value="&lt;i&gt;MemberID&lt;/i&gt;" style="shape=partialRectangle;html=1;whiteSpace=wrap;connectable=0;strokeColor=inherit;overflow=hidden;fillColor=none;top=0;left=0;bottom=0;right=0;pointerEvents=1;" vertex="1" parent="oGTQj1oGCnuFLCIUEzCe-264">
          <mxGeometry x="76" width="78" height="40" as="geometry">
            <mxRectangle width="78" height="40" as="alternateBounds" />
          </mxGeometry>
        </mxCell>
        <mxCell id="oGTQj1oGCnuFLCIUEzCe-267" value="Amount" style="shape=partialRectangle;html=1;whiteSpace=wrap;connectable=0;strokeColor=inherit;overflow=hidden;fillColor=none;top=0;left=0;bottom=0;right=0;pointerEvents=1;" vertex="1" parent="oGTQj1oGCnuFLCIUEzCe-264">
          <mxGeometry x="154" width="76" height="40" as="geometry">
            <mxRectangle width="76" height="40" as="alternateBounds" />
          </mxGeometry>
        </mxCell>
        <mxCell id="oGTQj1oGCnuFLCIUEzCe-268" value="Date" style="shape=partialRectangle;html=1;whiteSpace=wrap;connectable=0;strokeColor=inherit;overflow=hidden;fillColor=none;top=0;left=0;bottom=0;right=0;pointerEvents=1;" vertex="1" parent="oGTQj1oGCnuFLCIUEzCe-264">
          <mxGeometry x="230" width="76" height="40" as="geometry">
            <mxRectangle width="76" height="40" as="alternateBounds" />
          </mxGeometry>
        </mxCell>
        <mxCell id="oGTQj1oGCnuFLCIUEzCe-269" value="Payment Method" style="shape=partialRectangle;html=1;whiteSpace=wrap;connectable=0;strokeColor=inherit;overflow=hidden;fillColor=none;top=0;left=0;bottom=0;right=0;pointerEvents=1;" vertex="1" parent="oGTQj1oGCnuFLCIUEzCe-264">
          <mxGeometry x="306" width="78" height="40" as="geometry">
            <mxRectangle width="78" height="40" as="alternateBounds" />
          </mxGeometry>
        </mxCell>
        <mxCell id="oGTQj1oGCnuFLCIUEzCe-270" value="Service" style="shape=partialRectangle;html=1;whiteSpace=wrap;connectable=0;strokeColor=inherit;overflow=hidden;fillColor=none;top=0;left=0;bottom=0;right=0;pointerEvents=1;" vertex="1" parent="oGTQj1oGCnuFLCIUEzCe-264">
          <mxGeometry x="384" width="76" height="40" as="geometry">
            <mxRectangle width="76" height="40" as="alternateBounds" />
          </mxGeometry>
        </mxCell>
        <mxCell id="oGTQj1oGCnuFLCIUEzCe-278" value="" style="endArrow=none;html=1;rounded=0;" edge="1" parent="1" source="oGTQj1oGCnuFLCIUEzCe-4" target="oGTQj1oGCnuFLCIUEzCe-74">
          <mxGeometry width="50" height="50" relative="1" as="geometry">
            <mxPoint y="762" as="sourcePoint" />
            <mxPoint x="-182" y="829" as="targetPoint" />
          </mxGeometry>
        </mxCell>
        <mxCell id="oGTQj1oGCnuFLCIUEzCe-279" value="Personal Training Session" style="shape=table;startSize=30;container=1;collapsible=0;childLayout=tableLayout;" vertex="1" parent="1">
          <mxGeometry x="-1710" y="632.5" width="360" height="70" as="geometry" />
        </mxCell>
        <mxCell id="oGTQj1oGCnuFLCIUEzCe-280" value="" style="shape=tableRow;horizontal=0;startSize=0;swimlaneHead=0;swimlaneBody=0;strokeColor=inherit;top=0;left=0;bottom=0;right=0;collapsible=0;dropTarget=0;fillColor=none;points=[[0,0.5],[1,0.5]];portConstraint=eastwest;" vertex="1" parent="oGTQj1oGCnuFLCIUEzCe-279">
          <mxGeometry y="30" width="360" height="40" as="geometry" />
        </mxCell>
        <mxCell id="oGTQj1oGCnuFLCIUEzCe-281" value="&lt;u&gt;SessionID&lt;/u&gt;" style="shape=partialRectangle;html=1;whiteSpace=wrap;connectable=0;strokeColor=inherit;overflow=hidden;fillColor=none;top=0;left=0;bottom=0;right=0;pointerEvents=1;" vertex="1" parent="oGTQj1oGCnuFLCIUEzCe-280">
          <mxGeometry width="60" height="40" as="geometry">
            <mxRectangle width="60" height="40" as="alternateBounds" />
          </mxGeometry>
        </mxCell>
        <mxCell id="oGTQj1oGCnuFLCIUEzCe-282" value="Duration" style="shape=partialRectangle;html=1;whiteSpace=wrap;connectable=0;strokeColor=inherit;overflow=hidden;fillColor=none;top=0;left=0;bottom=0;right=0;pointerEvents=1;" vertex="1" parent="oGTQj1oGCnuFLCIUEzCe-280">
          <mxGeometry x="60" width="60" height="40" as="geometry">
            <mxRectangle width="60" height="40" as="alternateBounds" />
          </mxGeometry>
        </mxCell>
        <mxCell id="oGTQj1oGCnuFLCIUEzCe-283" value="Day" style="shape=partialRectangle;html=1;whiteSpace=wrap;connectable=0;strokeColor=inherit;overflow=hidden;fillColor=none;top=0;left=0;bottom=0;right=0;pointerEvents=1;" vertex="1" parent="oGTQj1oGCnuFLCIUEzCe-280">
          <mxGeometry x="120" width="60" height="40" as="geometry">
            <mxRectangle width="60" height="40" as="alternateBounds" />
          </mxGeometry>
        </mxCell>
        <mxCell id="oGTQj1oGCnuFLCIUEzCe-284" value="Time" style="shape=partialRectangle;html=1;whiteSpace=wrap;connectable=0;strokeColor=inherit;overflow=hidden;fillColor=none;top=0;left=0;bottom=0;right=0;pointerEvents=1;" vertex="1" parent="oGTQj1oGCnuFLCIUEzCe-280">
          <mxGeometry x="180" width="60" height="40" as="geometry">
            <mxRectangle width="60" height="40" as="alternateBounds" />
          </mxGeometry>
        </mxCell>
        <mxCell id="oGTQj1oGCnuFLCIUEzCe-308" value="memberID" style="shape=partialRectangle;html=1;whiteSpace=wrap;connectable=0;strokeColor=inherit;overflow=hidden;fillColor=none;top=0;left=0;bottom=0;right=0;pointerEvents=1;" vertex="1" parent="oGTQj1oGCnuFLCIUEzCe-280">
          <mxGeometry x="240" width="60" height="40" as="geometry">
            <mxRectangle width="60" height="40" as="alternateBounds" />
          </mxGeometry>
        </mxCell>
        <mxCell id="oGTQj1oGCnuFLCIUEzCe-309" value="trainerID" style="shape=partialRectangle;html=1;whiteSpace=wrap;connectable=0;strokeColor=inherit;overflow=hidden;fillColor=none;top=0;left=0;bottom=0;right=0;pointerEvents=1;" vertex="1" parent="oGTQj1oGCnuFLCIUEzCe-280">
          <mxGeometry x="300" width="60" height="40" as="geometry">
            <mxRectangle width="60" height="40" as="alternateBounds" />
          </mxGeometry>
        </mxCell>
        <mxCell id="oGTQj1oGCnuFLCIUEzCe-285" value="Loyalty Program" style="shape=table;startSize=30;container=1;collapsible=0;childLayout=tableLayout;" vertex="1" parent="1">
          <mxGeometry x="-2530" y="162.5" width="364" height="70" as="geometry" />
        </mxCell>
        <mxCell id="oGTQj1oGCnuFLCIUEzCe-286" value="" style="shape=tableRow;horizontal=0;startSize=0;swimlaneHead=0;swimlaneBody=0;strokeColor=inherit;top=0;left=0;bottom=0;right=0;collapsible=0;dropTarget=0;fillColor=none;points=[[0,0.5],[1,0.5]];portConstraint=eastwest;" vertex="1" parent="oGTQj1oGCnuFLCIUEzCe-285">
          <mxGeometry y="30" width="364" height="40" as="geometry" />
        </mxCell>
        <mxCell id="oGTQj1oGCnuFLCIUEzCe-287" value="&lt;u&gt;MemberID&lt;/u&gt;" style="shape=partialRectangle;html=1;whiteSpace=wrap;connectable=0;strokeColor=inherit;overflow=hidden;fillColor=none;top=0;left=0;bottom=0;right=0;pointerEvents=1;" vertex="1" parent="oGTQj1oGCnuFLCIUEzCe-286">
          <mxGeometry width="91" height="40" as="geometry">
            <mxRectangle width="91" height="40" as="alternateBounds" />
          </mxGeometry>
        </mxCell>
        <mxCell id="oGTQj1oGCnuFLCIUEzCe-289" value="Total Points" style="shape=partialRectangle;html=1;whiteSpace=wrap;connectable=0;strokeColor=inherit;overflow=hidden;fillColor=none;top=0;left=0;bottom=0;right=0;pointerEvents=1;" vertex="1" parent="oGTQj1oGCnuFLCIUEzCe-286">
          <mxGeometry x="91" width="91" height="40" as="geometry">
            <mxRectangle width="91" height="40" as="alternateBounds" />
          </mxGeometry>
        </mxCell>
        <mxCell id="oGTQj1oGCnuFLCIUEzCe-290" value="Points per&amp;nbsp;Transaction" style="shape=partialRectangle;html=1;whiteSpace=wrap;connectable=0;strokeColor=inherit;overflow=hidden;fillColor=none;top=0;left=0;bottom=0;right=0;pointerEvents=1;" vertex="1" parent="oGTQj1oGCnuFLCIUEzCe-286">
          <mxGeometry x="182" width="91" height="40" as="geometry">
            <mxRectangle width="91" height="40" as="alternateBounds" />
          </mxGeometry>
        </mxCell>
        <mxCell id="oGTQj1oGCnuFLCIUEzCe-291" value="Redeemed" style="shape=partialRectangle;html=1;whiteSpace=wrap;connectable=0;strokeColor=inherit;overflow=hidden;fillColor=none;top=0;left=0;bottom=0;right=0;pointerEvents=1;" vertex="1" parent="oGTQj1oGCnuFLCIUEzCe-286">
          <mxGeometry x="273" width="91" height="40" as="geometry">
            <mxRectangle width="91" height="40" as="alternateBounds" />
          </mxGeometry>
        </mxCell>
        <mxCell id="oGTQj1oGCnuFLCIUEzCe-292" value="Administrative Staff" style="shape=table;startSize=30;container=1;collapsible=0;childLayout=tableLayout;" vertex="1" parent="1">
          <mxGeometry x="-1350" y="482.5" width="300" height="70" as="geometry" />
        </mxCell>
        <mxCell id="oGTQj1oGCnuFLCIUEzCe-293" value="" style="shape=tableRow;horizontal=0;startSize=0;swimlaneHead=0;swimlaneBody=0;strokeColor=inherit;top=0;left=0;bottom=0;right=0;collapsible=0;dropTarget=0;fillColor=none;points=[[0,0.5],[1,0.5]];portConstraint=eastwest;" vertex="1" parent="oGTQj1oGCnuFLCIUEzCe-292">
          <mxGeometry y="30" width="300" height="40" as="geometry" />
        </mxCell>
        <mxCell id="oGTQj1oGCnuFLCIUEzCe-294" value="&lt;u&gt;StaffID&lt;/u&gt;" style="shape=partialRectangle;html=1;whiteSpace=wrap;connectable=0;strokeColor=inherit;overflow=hidden;fillColor=none;top=0;left=0;bottom=0;right=0;pointerEvents=1;" vertex="1" parent="oGTQj1oGCnuFLCIUEzCe-293">
          <mxGeometry width="60" height="40" as="geometry">
            <mxRectangle width="60" height="40" as="alternateBounds" />
          </mxGeometry>
        </mxCell>
        <mxCell id="oGTQj1oGCnuFLCIUEzCe-295" value="Name" style="shape=partialRectangle;html=1;whiteSpace=wrap;connectable=0;strokeColor=inherit;overflow=hidden;fillColor=none;top=0;left=0;bottom=0;right=0;pointerEvents=1;" vertex="1" parent="oGTQj1oGCnuFLCIUEzCe-293">
          <mxGeometry x="60" width="60" height="40" as="geometry">
            <mxRectangle width="60" height="40" as="alternateBounds" />
          </mxGeometry>
        </mxCell>
        <mxCell id="oGTQj1oGCnuFLCIUEzCe-296" value="Email" style="shape=partialRectangle;html=1;whiteSpace=wrap;connectable=0;strokeColor=inherit;overflow=hidden;fillColor=none;top=0;left=0;bottom=0;right=0;pointerEvents=1;" vertex="1" parent="oGTQj1oGCnuFLCIUEzCe-293">
          <mxGeometry x="120" width="60" height="40" as="geometry">
            <mxRectangle width="60" height="40" as="alternateBounds" />
          </mxGeometry>
        </mxCell>
        <mxCell id="oGTQj1oGCnuFLCIUEzCe-297" value="Role" style="shape=partialRectangle;html=1;whiteSpace=wrap;connectable=0;strokeColor=inherit;overflow=hidden;fillColor=none;top=0;left=0;bottom=0;right=0;pointerEvents=1;" vertex="1" parent="oGTQj1oGCnuFLCIUEzCe-293">
          <mxGeometry x="180" width="60" height="40" as="geometry">
            <mxRectangle width="60" height="40" as="alternateBounds" />
          </mxGeometry>
        </mxCell>
        <mxCell id="oGTQj1oGCnuFLCIUEzCe-298" value="Work Schedule" style="shape=partialRectangle;html=1;whiteSpace=wrap;connectable=0;strokeColor=inherit;overflow=hidden;fillColor=none;top=0;left=0;bottom=0;right=0;pointerEvents=1;" vertex="1" parent="oGTQj1oGCnuFLCIUEzCe-293">
          <mxGeometry x="240" width="60" height="40" as="geometry">
            <mxRectangle width="60" height="40" as="alternateBounds" />
          </mxGeometry>
        </mxCell>
        <mxCell id="oGTQj1oGCnuFLCIUEzCe-301" value="" style="endArrow=classic;html=1;rounded=0;exitX=0.081;exitY=0.971;exitDx=0;exitDy=0;exitPerimeter=0;edgeStyle=orthogonalEdgeStyle;" edge="1" parent="1" source="oGTQj1oGCnuFLCIUEzCe-286">
          <mxGeometry width="50" height="50" relative="1" as="geometry">
            <mxPoint x="-2280" y="402.5" as="sourcePoint" />
            <mxPoint x="-2540" y="473.5" as="targetPoint" />
            <Array as="points">
              <mxPoint x="-2500" y="353" />
              <mxPoint x="-2540" y="353" />
            </Array>
          </mxGeometry>
        </mxCell>
        <mxCell id="oGTQj1oGCnuFLCIUEzCe-302" value="" style="endArrow=classic;html=1;rounded=0;edgeStyle=orthogonalEdgeStyle;exitX=0.921;exitY=1.063;exitDx=0;exitDy=0;exitPerimeter=0;entryX=0.51;entryY=-0.019;entryDx=0;entryDy=0;entryPerimeter=0;" edge="1" parent="1" target="oGTQj1oGCnuFLCIUEzCe-285">
          <mxGeometry width="50" height="50" relative="1" as="geometry">
            <mxPoint x="-2171.1800000000003" y="515.0200000000001" as="sourcePoint" />
            <mxPoint x="-2320" y="152.5" as="targetPoint" />
            <Array as="points">
              <mxPoint x="-2168" y="515" />
              <mxPoint x="-2168" y="533" />
              <mxPoint x="-2008" y="533" />
              <mxPoint x="-2008" y="93" />
              <mxPoint x="-2340" y="93" />
              <mxPoint x="-2340" y="161" />
            </Array>
          </mxGeometry>
        </mxCell>
        <mxCell id="oGTQj1oGCnuFLCIUEzCe-304" value="memberID" style="ellipse;whiteSpace=wrap;html=1;" vertex="1" parent="1">
          <mxGeometry x="1060" y="340" width="105" height="50" as="geometry" />
        </mxCell>
        <mxCell id="oGTQj1oGCnuFLCIUEzCe-305" value="trainerID" style="ellipse;whiteSpace=wrap;html=1;" vertex="1" parent="1">
          <mxGeometry x="1090" y="395" width="105" height="50" as="geometry" />
        </mxCell>
        <mxCell id="oGTQj1oGCnuFLCIUEzCe-306" value="" style="endArrow=none;html=1;rounded=0;" edge="1" parent="1" source="oGTQj1oGCnuFLCIUEzCe-304" target="oGTQj1oGCnuFLCIUEzCe-7">
          <mxGeometry width="50" height="50" relative="1" as="geometry">
            <mxPoint x="1001" y="473" as="sourcePoint" />
            <mxPoint x="895" y="446" as="targetPoint" />
          </mxGeometry>
        </mxCell>
        <mxCell id="oGTQj1oGCnuFLCIUEzCe-307" value="" style="endArrow=none;html=1;rounded=0;" edge="1" parent="1" source="oGTQj1oGCnuFLCIUEzCe-305" target="oGTQj1oGCnuFLCIUEzCe-7">
          <mxGeometry width="50" height="50" relative="1" as="geometry">
            <mxPoint x="1011" y="483" as="sourcePoint" />
            <mxPoint x="905" y="456" as="targetPoint" />
          </mxGeometry>
        </mxCell>
        <mxCell id="oGTQj1oGCnuFLCIUEzCe-310" value="" style="endArrow=classic;html=1;rounded=0;exitX=0.743;exitY=1;exitDx=0;exitDy=0;exitPerimeter=0;entryX=0.061;entryY=1.045;entryDx=0;entryDy=0;entryPerimeter=0;edgeStyle=elbowEdgeStyle;elbow=vertical;" edge="1" parent="1" source="oGTQj1oGCnuFLCIUEzCe-280" target="oGTQj1oGCnuFLCIUEzCe-230">
          <mxGeometry width="50" height="50" relative="1" as="geometry">
            <mxPoint x="-1580" y="782.5" as="sourcePoint" />
            <mxPoint x="-2360" y="592.5" as="targetPoint" />
            <Array as="points">
              <mxPoint x="-2000" y="722.5" />
            </Array>
          </mxGeometry>
        </mxCell>
        <mxCell id="oGTQj1oGCnuFLCIUEzCe-311" value="" style="endArrow=classic;html=1;rounded=0;exitX=0.932;exitY=1.023;exitDx=0;exitDy=0;exitPerimeter=0;entryX=0.162;entryY=1;entryDx=0;entryDy=0;entryPerimeter=0;edgeStyle=elbowEdgeStyle;elbow=vertical;" edge="1" parent="1" source="oGTQj1oGCnuFLCIUEzCe-280" target="oGTQj1oGCnuFLCIUEzCe-239">
          <mxGeometry width="50" height="50" relative="1" as="geometry">
            <mxPoint x="-1980" y="582.5" as="sourcePoint" />
            <mxPoint x="-1930" y="532.5" as="targetPoint" />
            <Array as="points">
              <mxPoint x="-1780" y="842.5" />
            </Array>
          </mxGeometry>
        </mxCell>
        <mxCell id="oGTQj1oGCnuFLCIUEzCe-313" value="register" style="shape=table;startSize=30;container=1;collapsible=0;childLayout=tableLayout;" vertex="1" parent="1">
          <mxGeometry x="-1870" y="512.5" width="120" height="70" as="geometry" />
        </mxCell>
        <mxCell id="oGTQj1oGCnuFLCIUEzCe-314" value="" style="shape=tableRow;horizontal=0;startSize=0;swimlaneHead=0;swimlaneBody=0;strokeColor=inherit;top=0;left=0;bottom=0;right=0;collapsible=0;dropTarget=0;fillColor=none;points=[[0,0.5],[1,0.5]];portConstraint=eastwest;" vertex="1" parent="oGTQj1oGCnuFLCIUEzCe-313">
          <mxGeometry y="30" width="120" height="40" as="geometry" />
        </mxCell>
        <mxCell id="oGTQj1oGCnuFLCIUEzCe-315" value="&lt;u&gt;MemberID&lt;/u&gt;" style="shape=partialRectangle;html=1;whiteSpace=wrap;connectable=0;strokeColor=inherit;overflow=hidden;fillColor=none;top=0;left=0;bottom=0;right=0;pointerEvents=1;" vertex="1" parent="oGTQj1oGCnuFLCIUEzCe-314">
          <mxGeometry width="60" height="40" as="geometry">
            <mxRectangle width="60" height="40" as="alternateBounds" />
          </mxGeometry>
        </mxCell>
        <mxCell id="oGTQj1oGCnuFLCIUEzCe-316" value="&lt;u&gt;ClassID&lt;/u&gt;" style="shape=partialRectangle;html=1;whiteSpace=wrap;connectable=0;strokeColor=inherit;overflow=hidden;fillColor=none;top=0;left=0;bottom=0;right=0;pointerEvents=1;" vertex="1" parent="oGTQj1oGCnuFLCIUEzCe-314">
          <mxGeometry x="60" width="60" height="40" as="geometry">
            <mxRectangle width="60" height="40" as="alternateBounds" />
          </mxGeometry>
        </mxCell>
        <mxCell id="oGTQj1oGCnuFLCIUEzCe-317" value="" style="endArrow=classic;html=1;rounded=0;exitX=0.751;exitY=1.106;exitDx=0;exitDy=0;exitPerimeter=0;entryX=0.107;entryY=1.01;entryDx=0;entryDy=0;entryPerimeter=0;edgeStyle=elbowEdgeStyle;elbow=vertical;" edge="1" parent="1" source="oGTQj1oGCnuFLCIUEzCe-314" target="oGTQj1oGCnuFLCIUEzCe-244">
          <mxGeometry width="50" height="50" relative="1" as="geometry">
            <mxPoint x="-1720" y="722.5" as="sourcePoint" />
            <mxPoint x="-1770" y="772.5" as="targetPoint" />
            <Array as="points">
              <mxPoint x="-1720" y="602.5" />
            </Array>
          </mxGeometry>
        </mxCell>
        <mxCell id="oGTQj1oGCnuFLCIUEzCe-318" value="" style="endArrow=classic;html=1;rounded=0;exitX=0.153;exitY=1.037;exitDx=0;exitDy=0;exitPerimeter=0;entryX=0.081;entryY=1.069;entryDx=0;entryDy=0;entryPerimeter=0;edgeStyle=elbowEdgeStyle;elbow=vertical;" edge="1" parent="1" source="oGTQj1oGCnuFLCIUEzCe-314" target="oGTQj1oGCnuFLCIUEzCe-230">
          <mxGeometry width="50" height="50" relative="1" as="geometry">
            <mxPoint x="-2190" y="632.5" as="sourcePoint" />
            <mxPoint x="-2230" y="592.5" as="targetPoint" />
            <Array as="points">
              <mxPoint x="-2190" y="602.5" />
            </Array>
          </mxGeometry>
        </mxCell>
        <mxCell id="oGTQj1oGCnuFLCIUEzCe-319" value="" style="endArrow=classic;html=1;rounded=0;edgeStyle=orthogonalEdgeStyle;entryX=0.1;entryY=1.064;entryDx=0;entryDy=0;entryPerimeter=0;exitX=0.255;exitY=1.009;exitDx=0;exitDy=0;exitPerimeter=0;" edge="1" parent="1" source="oGTQj1oGCnuFLCIUEzCe-264" target="oGTQj1oGCnuFLCIUEzCe-230">
          <mxGeometry width="50" height="50" relative="1" as="geometry">
            <mxPoint x="-1750" y="302.5" as="sourcePoint" />
            <mxPoint x="-2518" y="552.5" as="targetPoint" />
            <Array as="points">
              <mxPoint x="-1713" y="155.5" />
              <mxPoint x="-1713" y="303.5" />
              <mxPoint x="-1970" y="303.5" />
              <mxPoint x="-1970" y="552.5" />
              <mxPoint x="-2518" y="552.5" />
            </Array>
          </mxGeometry>
        </mxCell>
        <mxCell id="oGTQj1oGCnuFLCIUEzCe-320" value="" style="endArrow=classic;html=1;rounded=0;exitX=0.742;exitY=1.013;exitDx=0;exitDy=0;exitPerimeter=0;entryX=0.077;entryY=1;entryDx=0;entryDy=0;entryPerimeter=0;edgeStyle=elbowEdgeStyle;elbow=vertical;" edge="1" parent="1" source="oGTQj1oGCnuFLCIUEzCe-250" target="oGTQj1oGCnuFLCIUEzCe-293">
          <mxGeometry width="50" height="50" relative="1" as="geometry">
            <mxPoint x="-1010" y="522.5" as="sourcePoint" />
            <mxPoint x="-960" y="472.5" as="targetPoint" />
            <Array as="points">
              <mxPoint x="-1010" y="622.5" />
            </Array>
          </mxGeometry>
        </mxCell>
        <mxCell id="oGTQj1oGCnuFLCIUEzCe-325" value="" style="endArrow=classic;html=1;rounded=0;exitX=0.896;exitY=1.175;exitDx=0;exitDy=0;exitPerimeter=0;entryX=0.053;entryY=1.046;entryDx=0;entryDy=0;entryPerimeter=0;edgeStyle=elbowEdgeStyle;elbow=vertical;" edge="1" parent="1" source="oGTQj1oGCnuFLCIUEzCe-244" target="oGTQj1oGCnuFLCIUEzCe-250">
          <mxGeometry width="50" height="50" relative="1" as="geometry">
            <mxPoint x="-1393" y="424.5" as="sourcePoint" />
            <mxPoint x="-877" y="374.5" as="targetPoint" />
            <Array as="points">
              <mxPoint x="-1130" y="442.5" />
            </Array>
          </mxGeometry>
        </mxCell>
        <mxCell id="oGTQj1oGCnuFLCIUEzCe-327" value="&lt;h1&gt;Dependancy&amp;nbsp;&lt;/h1&gt;&lt;p&gt;member:&lt;/p&gt;&lt;p&gt;memberID --&amp;gt; { Name, Email, Date of Birth, Fitness Goals, Weight, Loyalty }&lt;/p&gt;&lt;p&gt;Trainer:&lt;/p&gt;&lt;p&gt;trainerID --&amp;gt; { Name, Email }&lt;/p&gt;&lt;p&gt;Loyalty Program:&lt;/p&gt;&lt;p&gt;memberID --&amp;gt; { Total Points, Points per Transaction, Redeemed }&lt;/p&gt;&lt;p&gt;Billing and Payment:&lt;/p&gt;&lt;p&gt;TransactionID --&amp;gt; { MemberID, Amount, Date, Payment Method, Service }&lt;/p&gt;&lt;p&gt;Fitness Class:&lt;/p&gt;&lt;p&gt;ClassID --&amp;gt; { Name, Description, Capacity, Location }&lt;/p&gt;&lt;p&gt;Room:&lt;/p&gt;&lt;p&gt;RoomID --&amp;gt; { Name, Capacity, Room Available }&lt;/p&gt;&lt;p&gt;EquipmentID --&amp;gt; { Kind, Location, Maintenance Schedule }&lt;br&gt;&lt;/p&gt;&lt;p&gt;Administrative Staff:&lt;/p&gt;&lt;p&gt;StaffID --&amp;gt; { Name, Email, Role, Work Schedule }&lt;/p&gt;&lt;p&gt;Personal Training Session:&lt;/p&gt;&lt;p&gt;SessionID --&amp;gt; { Duration, Day, Time, MemberID, TrainerID }&lt;/p&gt;&lt;p&gt;&lt;br&gt;&lt;/p&gt;&lt;p&gt;&lt;br&gt;&lt;/p&gt;&lt;div&gt;&lt;br&gt;&lt;/div&gt;&lt;p&gt;&lt;br&gt;&lt;/p&gt;" style="text;html=1;strokeColor=none;fillColor=none;spacing=5;spacingTop=-20;whiteSpace=wrap;overflow=hidden;rounded=0;" vertex="1" parent="1">
          <mxGeometry x="-3290" y="75" width="560" height="555" as="geometry" />
        </mxCell>
        <mxCell id="oGTQj1oGCnuFLCIUEzCe-332" value="&lt;h1&gt;Normalization&amp;nbsp;&lt;/h1&gt;&lt;p&gt;all the tables are in 2NF and 3NF except the room table&amp;nbsp; is only in 3NF&amp;nbsp;&lt;/p&gt;&lt;p&gt;&lt;br&gt;&lt;/p&gt;&lt;p&gt;to make in 2NF we have to break it into two tables&lt;/p&gt;" style="text;html=1;strokeColor=none;fillColor=none;spacing=5;spacingTop=-20;whiteSpace=wrap;overflow=hidden;rounded=0;" vertex="1" parent="1">
          <mxGeometry x="-4140" y="20" width="410" height="150" as="geometry" />
        </mxCell>
        <mxCell id="oGTQj1oGCnuFLCIUEzCe-333" value="Room" style="shape=table;startSize=30;container=1;collapsible=0;childLayout=tableLayout;" vertex="1" parent="1">
          <mxGeometry x="-4150" y="480" width="240" height="70" as="geometry" />
        </mxCell>
        <mxCell id="oGTQj1oGCnuFLCIUEzCe-334" value="" style="shape=tableRow;horizontal=0;startSize=0;swimlaneHead=0;swimlaneBody=0;strokeColor=inherit;top=0;left=0;bottom=0;right=0;collapsible=0;dropTarget=0;fillColor=none;points=[[0,0.5],[1,0.5]];portConstraint=eastwest;" vertex="1" parent="oGTQj1oGCnuFLCIUEzCe-333">
          <mxGeometry y="30" width="240" height="40" as="geometry" />
        </mxCell>
        <mxCell id="oGTQj1oGCnuFLCIUEzCe-335" value="RoomID" style="shape=partialRectangle;html=1;whiteSpace=wrap;connectable=0;strokeColor=inherit;overflow=hidden;fillColor=none;top=0;left=0;bottom=0;right=0;pointerEvents=1;" vertex="1" parent="oGTQj1oGCnuFLCIUEzCe-334">
          <mxGeometry width="60" height="40" as="geometry">
            <mxRectangle width="60" height="40" as="alternateBounds" />
          </mxGeometry>
        </mxCell>
        <mxCell id="oGTQj1oGCnuFLCIUEzCe-336" value="Name" style="shape=partialRectangle;html=1;whiteSpace=wrap;connectable=0;strokeColor=inherit;overflow=hidden;fillColor=none;top=0;left=0;bottom=0;right=0;pointerEvents=1;" vertex="1" parent="oGTQj1oGCnuFLCIUEzCe-334">
          <mxGeometry x="60" width="60" height="40" as="geometry">
            <mxRectangle width="60" height="40" as="alternateBounds" />
          </mxGeometry>
        </mxCell>
        <mxCell id="oGTQj1oGCnuFLCIUEzCe-337" value="Capacity" style="shape=partialRectangle;html=1;whiteSpace=wrap;connectable=0;strokeColor=inherit;overflow=hidden;fillColor=none;top=0;left=0;bottom=0;right=0;pointerEvents=1;" vertex="1" parent="oGTQj1oGCnuFLCIUEzCe-334">
          <mxGeometry x="120" width="60" height="40" as="geometry">
            <mxRectangle width="60" height="40" as="alternateBounds" />
          </mxGeometry>
        </mxCell>
        <mxCell id="oGTQj1oGCnuFLCIUEzCe-338" value="Room Available" style="shape=partialRectangle;html=1;whiteSpace=wrap;connectable=0;strokeColor=inherit;overflow=hidden;fillColor=none;top=0;left=0;bottom=0;right=0;pointerEvents=1;" vertex="1" parent="oGTQj1oGCnuFLCIUEzCe-334">
          <mxGeometry x="180" width="60" height="40" as="geometry">
            <mxRectangle width="60" height="40" as="alternateBounds" />
          </mxGeometry>
        </mxCell>
        <mxCell id="oGTQj1oGCnuFLCIUEzCe-356" value="" style="endArrow=classic;html=1;rounded=0;exitX=0.129;exitY=1.019;exitDx=0;exitDy=0;exitPerimeter=0;edgeStyle=orthogonalEdgeStyle;entryX=0.876;entryY=1.074;entryDx=0;entryDy=0;entryPerimeter=0;" edge="1" parent="oGTQj1oGCnuFLCIUEzCe-333" source="oGTQj1oGCnuFLCIUEzCe-334" target="oGTQj1oGCnuFLCIUEzCe-334">
          <mxGeometry width="50" height="50" relative="1" as="geometry">
            <mxPoint x="30" y="97" as="sourcePoint" />
            <mxPoint x="480" y="95" as="targetPoint" />
            <Array as="points">
              <mxPoint x="30" y="71" />
              <mxPoint x="30" y="120" />
              <mxPoint x="210" y="120" />
            </Array>
          </mxGeometry>
        </mxCell>
        <mxCell id="oGTQj1oGCnuFLCIUEzCe-339" value="" style="endArrow=classic;html=1;rounded=0;exitX=0.91;exitY=1.068;exitDx=0;exitDy=0;exitPerimeter=0;entryX=0.123;entryY=1.035;entryDx=0;entryDy=0;entryPerimeter=0;edgeStyle=elbowEdgeStyle;elbow=vertical;" edge="1" parent="1" source="oGTQj1oGCnuFLCIUEzCe-250" target="oGTQj1oGCnuFLCIUEzCe-293">
          <mxGeometry width="50" height="50" relative="1" as="geometry">
            <mxPoint x="-1000" y="420" as="sourcePoint" />
            <mxPoint x="-950" y="370" as="targetPoint" />
            <Array as="points">
              <mxPoint x="-860" y="580" />
            </Array>
          </mxGeometry>
        </mxCell>
        <mxCell id="oGTQj1oGCnuFLCIUEzCe-340" value="Room" style="shape=table;startSize=30;container=1;collapsible=0;childLayout=tableLayout;" vertex="1" parent="1">
          <mxGeometry x="-4160" y="250" width="620" height="70" as="geometry" />
        </mxCell>
        <mxCell id="oGTQj1oGCnuFLCIUEzCe-341" value="" style="shape=tableRow;horizontal=0;startSize=0;swimlaneHead=0;swimlaneBody=0;strokeColor=inherit;top=0;left=0;bottom=0;right=0;collapsible=0;dropTarget=0;fillColor=none;points=[[0,0.5],[1,0.5]];portConstraint=eastwest;" vertex="1" parent="oGTQj1oGCnuFLCIUEzCe-340">
          <mxGeometry y="30" width="620" height="40" as="geometry" />
        </mxCell>
        <mxCell id="oGTQj1oGCnuFLCIUEzCe-342" value="&lt;u&gt;RoomID&lt;/u&gt;" style="shape=partialRectangle;html=1;whiteSpace=wrap;connectable=0;strokeColor=inherit;overflow=hidden;fillColor=none;top=0;left=0;bottom=0;right=0;pointerEvents=1;" vertex="1" parent="oGTQj1oGCnuFLCIUEzCe-341">
          <mxGeometry width="69" height="40" as="geometry">
            <mxRectangle width="69" height="40" as="alternateBounds" />
          </mxGeometry>
        </mxCell>
        <mxCell id="oGTQj1oGCnuFLCIUEzCe-343" value="&lt;u&gt;EquipmentID&lt;/u&gt;" style="shape=partialRectangle;html=1;whiteSpace=wrap;connectable=0;strokeColor=inherit;overflow=hidden;fillColor=none;top=0;left=0;bottom=0;right=0;pointerEvents=1;" vertex="1" parent="oGTQj1oGCnuFLCIUEzCe-341">
          <mxGeometry x="69" width="69" height="40" as="geometry">
            <mxRectangle width="69" height="40" as="alternateBounds" />
          </mxGeometry>
        </mxCell>
        <mxCell id="oGTQj1oGCnuFLCIUEzCe-344" value="Name" style="shape=partialRectangle;html=1;whiteSpace=wrap;connectable=0;strokeColor=inherit;overflow=hidden;fillColor=none;top=0;left=0;bottom=0;right=0;pointerEvents=1;" vertex="1" parent="oGTQj1oGCnuFLCIUEzCe-341">
          <mxGeometry x="138" width="69" height="40" as="geometry">
            <mxRectangle width="69" height="40" as="alternateBounds" />
          </mxGeometry>
        </mxCell>
        <mxCell id="oGTQj1oGCnuFLCIUEzCe-345" value="Kind" style="shape=partialRectangle;html=1;whiteSpace=wrap;connectable=0;strokeColor=inherit;overflow=hidden;fillColor=none;top=0;left=0;bottom=0;right=0;pointerEvents=1;" vertex="1" parent="oGTQj1oGCnuFLCIUEzCe-341">
          <mxGeometry x="207" width="69" height="40" as="geometry">
            <mxRectangle width="69" height="40" as="alternateBounds" />
          </mxGeometry>
        </mxCell>
        <mxCell id="oGTQj1oGCnuFLCIUEzCe-346" value="location" style="shape=partialRectangle;html=1;whiteSpace=wrap;connectable=0;strokeColor=inherit;overflow=hidden;fillColor=none;top=0;left=0;bottom=0;right=0;pointerEvents=1;" vertex="1" parent="oGTQj1oGCnuFLCIUEzCe-341">
          <mxGeometry x="276" width="68" height="40" as="geometry">
            <mxRectangle width="68" height="40" as="alternateBounds" />
          </mxGeometry>
        </mxCell>
        <mxCell id="oGTQj1oGCnuFLCIUEzCe-347" value="Capacity" style="shape=partialRectangle;html=1;whiteSpace=wrap;connectable=0;strokeColor=inherit;overflow=hidden;fillColor=none;top=0;left=0;bottom=0;right=0;pointerEvents=1;" vertex="1" parent="oGTQj1oGCnuFLCIUEzCe-341">
          <mxGeometry x="344" width="69" height="40" as="geometry">
            <mxRectangle width="69" height="40" as="alternateBounds" />
          </mxGeometry>
        </mxCell>
        <mxCell id="oGTQj1oGCnuFLCIUEzCe-348" value="room Available" style="shape=partialRectangle;html=1;whiteSpace=wrap;connectable=0;strokeColor=inherit;overflow=hidden;fillColor=none;top=0;left=0;bottom=0;right=0;pointerEvents=1;" vertex="1" parent="oGTQj1oGCnuFLCIUEzCe-341">
          <mxGeometry x="413" width="104" height="40" as="geometry">
            <mxRectangle width="104" height="40" as="alternateBounds" />
          </mxGeometry>
        </mxCell>
        <mxCell id="oGTQj1oGCnuFLCIUEzCe-349" value="Maintenance Schedule" style="shape=partialRectangle;html=1;whiteSpace=wrap;connectable=0;strokeColor=inherit;overflow=hidden;fillColor=none;top=0;left=0;bottom=0;right=0;pointerEvents=1;" vertex="1" parent="oGTQj1oGCnuFLCIUEzCe-341">
          <mxGeometry x="517" width="103" height="40" as="geometry">
            <mxRectangle width="103" height="40" as="alternateBounds" />
          </mxGeometry>
        </mxCell>
        <mxCell id="oGTQj1oGCnuFLCIUEzCe-350" value="" style="endArrow=classic;html=1;rounded=0;exitX=0.032;exitY=1.05;exitDx=0;exitDy=0;exitPerimeter=0;edgeStyle=orthogonalEdgeStyle;" edge="1" parent="oGTQj1oGCnuFLCIUEzCe-340" source="oGTQj1oGCnuFLCIUEzCe-341" target="oGTQj1oGCnuFLCIUEzCe-341">
          <mxGeometry width="50" height="50" relative="1" as="geometry">
            <mxPoint x="400" y="120" as="sourcePoint" />
            <mxPoint x="390" y="130" as="targetPoint" />
            <Array as="points">
              <mxPoint x="20" y="180" />
              <mxPoint x="470" y="180" />
            </Array>
          </mxGeometry>
        </mxCell>
        <mxCell id="oGTQj1oGCnuFLCIUEzCe-351" value="" style="endArrow=classic;html=1;rounded=0;entryX=0.613;entryY=1;entryDx=0;entryDy=0;entryPerimeter=0;" edge="1" parent="1" target="oGTQj1oGCnuFLCIUEzCe-341">
          <mxGeometry width="50" height="50" relative="1" as="geometry">
            <mxPoint x="-3780" y="430" as="sourcePoint" />
            <mxPoint x="-3710" y="320" as="targetPoint" />
          </mxGeometry>
        </mxCell>
        <mxCell id="oGTQj1oGCnuFLCIUEzCe-352" value="" style="endArrow=classic;html=1;rounded=0;entryX=0.613;entryY=1;entryDx=0;entryDy=0;entryPerimeter=0;" edge="1" parent="1">
          <mxGeometry width="50" height="50" relative="1" as="geometry">
            <mxPoint x="-3990" y="430" as="sourcePoint" />
            <mxPoint x="-3990" y="320" as="targetPoint" />
          </mxGeometry>
        </mxCell>
        <mxCell id="oGTQj1oGCnuFLCIUEzCe-353" value="" style="endArrow=classic;html=1;rounded=0;edgeStyle=orthogonalEdgeStyle;entryX=0.903;entryY=1.017;entryDx=0;entryDy=0;entryPerimeter=0;" edge="1" parent="1" target="oGTQj1oGCnuFLCIUEzCe-341">
          <mxGeometry width="50" height="50" relative="1" as="geometry">
            <mxPoint x="-4050" y="320" as="sourcePoint" />
            <mxPoint x="-3680" y="330" as="targetPoint" />
            <Array as="points">
              <mxPoint x="-4050" y="390" />
              <mxPoint x="-3600" y="390" />
            </Array>
          </mxGeometry>
        </mxCell>
        <mxCell id="oGTQj1oGCnuFLCIUEzCe-354" value="" style="endArrow=classic;html=1;rounded=0;" edge="1" parent="1">
          <mxGeometry width="50" height="50" relative="1" as="geometry">
            <mxPoint x="-3920" y="390" as="sourcePoint" />
            <mxPoint x="-3920" y="320" as="targetPoint" />
          </mxGeometry>
        </mxCell>
        <mxCell id="oGTQj1oGCnuFLCIUEzCe-355" value="" style="endArrow=classic;html=1;rounded=0;entryX=0.387;entryY=0.942;entryDx=0;entryDy=0;entryPerimeter=0;" edge="1" parent="1">
          <mxGeometry width="50" height="50" relative="1" as="geometry">
            <mxPoint x="-3850" y="390" as="sourcePoint" />
            <mxPoint x="-3850.19" y="320" as="targetPoint" />
          </mxGeometry>
        </mxCell>
        <mxCell id="oGTQj1oGCnuFLCIUEzCe-357" value="" style="endArrow=classic;html=1;rounded=0;entryX=0.375;entryY=0.996;entryDx=0;entryDy=0;entryPerimeter=0;" edge="1" parent="1" target="oGTQj1oGCnuFLCIUEzCe-334">
          <mxGeometry width="50" height="50" relative="1" as="geometry">
            <mxPoint x="-4060" y="600" as="sourcePoint" />
            <mxPoint x="-4030" y="550" as="targetPoint" />
          </mxGeometry>
        </mxCell>
        <mxCell id="oGTQj1oGCnuFLCIUEzCe-358" value="" style="endArrow=classic;html=1;rounded=0;entryX=0.375;entryY=0.996;entryDx=0;entryDy=0;entryPerimeter=0;" edge="1" parent="1">
          <mxGeometry width="50" height="50" relative="1" as="geometry">
            <mxPoint x="-4000" y="600" as="sourcePoint" />
            <mxPoint x="-4000" y="550" as="targetPoint" />
          </mxGeometry>
        </mxCell>
        <mxCell id="oGTQj1oGCnuFLCIUEzCe-359" value="" style="endArrow=classic;html=1;rounded=0;exitX=0.129;exitY=1.019;exitDx=0;exitDy=0;exitPerimeter=0;edgeStyle=orthogonalEdgeStyle;entryX=0.876;entryY=1.074;entryDx=0;entryDy=0;entryPerimeter=0;" edge="1" parent="1">
          <mxGeometry width="50" height="50" relative="1" as="geometry">
            <mxPoint x="-3789" y="546" as="sourcePoint" />
            <mxPoint x="-3610" y="548" as="targetPoint" />
            <Array as="points">
              <mxPoint x="-3790" y="546" />
              <mxPoint x="-3790" y="595" />
              <mxPoint x="-3610" y="595" />
            </Array>
          </mxGeometry>
        </mxCell>
        <mxCell id="oGTQj1oGCnuFLCIUEzCe-360" value="" style="endArrow=classic;html=1;rounded=0;entryX=0.375;entryY=0.996;entryDx=0;entryDy=0;entryPerimeter=0;" edge="1" parent="1">
          <mxGeometry width="50" height="50" relative="1" as="geometry">
            <mxPoint x="-3730" y="595" as="sourcePoint" />
            <mxPoint x="-3730" y="545" as="targetPoint" />
          </mxGeometry>
        </mxCell>
        <mxCell id="oGTQj1oGCnuFLCIUEzCe-361" value="" style="endArrow=classic;html=1;rounded=0;entryX=0.375;entryY=0.996;entryDx=0;entryDy=0;entryPerimeter=0;" edge="1" parent="1">
          <mxGeometry width="50" height="50" relative="1" as="geometry">
            <mxPoint x="-3670" y="595" as="sourcePoint" />
            <mxPoint x="-3670" y="545" as="targetPoint" />
          </mxGeometry>
        </mxCell>
        <mxCell id="oGTQj1oGCnuFLCIUEzCe-436" value="member" style="shape=table;startSize=30;container=1;collapsible=0;childLayout=tableLayout;" vertex="1" parent="1">
          <mxGeometry x="-6290" y="415" width="420" height="70" as="geometry" />
        </mxCell>
        <mxCell id="oGTQj1oGCnuFLCIUEzCe-437" value="" style="shape=tableRow;horizontal=0;startSize=0;swimlaneHead=0;swimlaneBody=0;strokeColor=inherit;top=0;left=0;bottom=0;right=0;collapsible=0;dropTarget=0;fillColor=none;points=[[0,0.5],[1,0.5]];portConstraint=eastwest;" vertex="1" parent="oGTQj1oGCnuFLCIUEzCe-436">
          <mxGeometry y="30" width="420" height="40" as="geometry" />
        </mxCell>
        <mxCell id="oGTQj1oGCnuFLCIUEzCe-438" value="&lt;u&gt;MemberID&lt;/u&gt;" style="shape=partialRectangle;html=1;whiteSpace=wrap;connectable=0;strokeColor=inherit;overflow=hidden;fillColor=none;top=0;left=0;bottom=0;right=0;pointerEvents=1;" vertex="1" parent="oGTQj1oGCnuFLCIUEzCe-437">
          <mxGeometry width="60" height="40" as="geometry">
            <mxRectangle width="60" height="40" as="alternateBounds" />
          </mxGeometry>
        </mxCell>
        <mxCell id="oGTQj1oGCnuFLCIUEzCe-439" value="Name" style="shape=partialRectangle;html=1;whiteSpace=wrap;connectable=0;strokeColor=inherit;overflow=hidden;fillColor=none;top=0;left=0;bottom=0;right=0;pointerEvents=1;" vertex="1" parent="oGTQj1oGCnuFLCIUEzCe-437">
          <mxGeometry x="60" width="60" height="40" as="geometry">
            <mxRectangle width="60" height="40" as="alternateBounds" />
          </mxGeometry>
        </mxCell>
        <mxCell id="oGTQj1oGCnuFLCIUEzCe-440" value="Email" style="shape=partialRectangle;html=1;whiteSpace=wrap;connectable=0;strokeColor=inherit;overflow=hidden;fillColor=none;top=0;left=0;bottom=0;right=0;pointerEvents=1;" vertex="1" parent="oGTQj1oGCnuFLCIUEzCe-437">
          <mxGeometry x="120" width="60" height="40" as="geometry">
            <mxRectangle width="60" height="40" as="alternateBounds" />
          </mxGeometry>
        </mxCell>
        <mxCell id="oGTQj1oGCnuFLCIUEzCe-441" value="Date of Birth" style="shape=partialRectangle;html=1;whiteSpace=wrap;connectable=0;strokeColor=inherit;overflow=hidden;fillColor=none;top=0;left=0;bottom=0;right=0;pointerEvents=1;" vertex="1" parent="oGTQj1oGCnuFLCIUEzCe-437">
          <mxGeometry x="180" width="60" height="40" as="geometry">
            <mxRectangle width="60" height="40" as="alternateBounds" />
          </mxGeometry>
        </mxCell>
        <mxCell id="oGTQj1oGCnuFLCIUEzCe-442" value="Fitness Goals" style="shape=partialRectangle;html=1;whiteSpace=wrap;connectable=0;strokeColor=inherit;overflow=hidden;fillColor=none;top=0;left=0;bottom=0;right=0;pointerEvents=1;" vertex="1" parent="oGTQj1oGCnuFLCIUEzCe-437">
          <mxGeometry x="240" width="60" height="40" as="geometry">
            <mxRectangle width="60" height="40" as="alternateBounds" />
          </mxGeometry>
        </mxCell>
        <mxCell id="oGTQj1oGCnuFLCIUEzCe-443" value="weight" style="shape=partialRectangle;html=1;whiteSpace=wrap;connectable=0;strokeColor=inherit;overflow=hidden;fillColor=none;top=0;left=0;bottom=0;right=0;pointerEvents=1;" vertex="1" parent="oGTQj1oGCnuFLCIUEzCe-437">
          <mxGeometry x="300" width="60" height="40" as="geometry">
            <mxRectangle width="60" height="40" as="alternateBounds" />
          </mxGeometry>
        </mxCell>
        <mxCell id="oGTQj1oGCnuFLCIUEzCe-444" value="Loyalty&amp;nbsp;" style="shape=partialRectangle;html=1;whiteSpace=wrap;connectable=0;strokeColor=inherit;overflow=hidden;fillColor=none;top=0;left=0;bottom=0;right=0;pointerEvents=1;" vertex="1" parent="oGTQj1oGCnuFLCIUEzCe-437">
          <mxGeometry x="360" width="60" height="40" as="geometry">
            <mxRectangle width="60" height="40" as="alternateBounds" />
          </mxGeometry>
        </mxCell>
        <mxCell id="oGTQj1oGCnuFLCIUEzCe-445" value="Trainer" style="shape=table;startSize=30;container=1;collapsible=0;childLayout=tableLayout;" vertex="1" parent="1">
          <mxGeometry x="-5900" y="715" width="180" height="70" as="geometry" />
        </mxCell>
        <mxCell id="oGTQj1oGCnuFLCIUEzCe-446" value="" style="shape=tableRow;horizontal=0;startSize=0;swimlaneHead=0;swimlaneBody=0;strokeColor=inherit;top=0;left=0;bottom=0;right=0;collapsible=0;dropTarget=0;fillColor=none;points=[[0,0.5],[1,0.5]];portConstraint=eastwest;" vertex="1" parent="oGTQj1oGCnuFLCIUEzCe-445">
          <mxGeometry y="30" width="180" height="40" as="geometry" />
        </mxCell>
        <mxCell id="oGTQj1oGCnuFLCIUEzCe-447" value="&lt;u&gt;TrainerID&lt;/u&gt;" style="shape=partialRectangle;html=1;whiteSpace=wrap;connectable=0;strokeColor=inherit;overflow=hidden;fillColor=none;top=0;left=0;bottom=0;right=0;pointerEvents=1;" vertex="1" parent="oGTQj1oGCnuFLCIUEzCe-446">
          <mxGeometry width="60" height="40" as="geometry">
            <mxRectangle width="60" height="40" as="alternateBounds" />
          </mxGeometry>
        </mxCell>
        <mxCell id="oGTQj1oGCnuFLCIUEzCe-448" value="Name" style="shape=partialRectangle;html=1;whiteSpace=wrap;connectable=0;strokeColor=inherit;overflow=hidden;fillColor=none;top=0;left=0;bottom=0;right=0;pointerEvents=1;" vertex="1" parent="oGTQj1oGCnuFLCIUEzCe-446">
          <mxGeometry x="60" width="60" height="40" as="geometry">
            <mxRectangle width="60" height="40" as="alternateBounds" />
          </mxGeometry>
        </mxCell>
        <mxCell id="oGTQj1oGCnuFLCIUEzCe-449" value="Email" style="shape=partialRectangle;html=1;whiteSpace=wrap;connectable=0;strokeColor=inherit;overflow=hidden;fillColor=none;top=0;left=0;bottom=0;right=0;pointerEvents=1;" vertex="1" parent="oGTQj1oGCnuFLCIUEzCe-446">
          <mxGeometry x="120" width="60" height="40" as="geometry">
            <mxRectangle width="60" height="40" as="alternateBounds" />
          </mxGeometry>
        </mxCell>
        <mxCell id="oGTQj1oGCnuFLCIUEzCe-450" value="Fitness Class" style="shape=table;startSize=30;container=1;collapsible=0;childLayout=tableLayout;" vertex="1" parent="1">
          <mxGeometry x="-5425" y="315" width="337" height="70" as="geometry" />
        </mxCell>
        <mxCell id="oGTQj1oGCnuFLCIUEzCe-451" value="" style="shape=tableRow;horizontal=0;startSize=0;swimlaneHead=0;swimlaneBody=0;strokeColor=inherit;top=0;left=0;bottom=0;right=0;collapsible=0;dropTarget=0;fillColor=none;points=[[0,0.5],[1,0.5]];portConstraint=eastwest;" vertex="1" parent="oGTQj1oGCnuFLCIUEzCe-450">
          <mxGeometry y="30" width="337" height="40" as="geometry" />
        </mxCell>
        <mxCell id="oGTQj1oGCnuFLCIUEzCe-452" value="&lt;u&gt;ClassID&lt;/u&gt;" style="shape=partialRectangle;html=1;whiteSpace=wrap;connectable=0;strokeColor=inherit;overflow=hidden;fillColor=none;top=0;left=0;bottom=0;right=0;pointerEvents=1;" vertex="1" parent="oGTQj1oGCnuFLCIUEzCe-451">
          <mxGeometry width="68" height="40" as="geometry">
            <mxRectangle width="68" height="40" as="alternateBounds" />
          </mxGeometry>
        </mxCell>
        <mxCell id="oGTQj1oGCnuFLCIUEzCe-453" value="Name" style="shape=partialRectangle;html=1;whiteSpace=wrap;connectable=0;strokeColor=inherit;overflow=hidden;fillColor=none;top=0;left=0;bottom=0;right=0;pointerEvents=1;" vertex="1" parent="oGTQj1oGCnuFLCIUEzCe-451">
          <mxGeometry x="68" width="67" height="40" as="geometry">
            <mxRectangle width="67" height="40" as="alternateBounds" />
          </mxGeometry>
        </mxCell>
        <mxCell id="oGTQj1oGCnuFLCIUEzCe-454" value="Description" style="shape=partialRectangle;html=1;whiteSpace=wrap;connectable=0;strokeColor=inherit;overflow=hidden;fillColor=none;top=0;left=0;bottom=0;right=0;pointerEvents=1;" vertex="1" parent="oGTQj1oGCnuFLCIUEzCe-451">
          <mxGeometry x="135" width="68" height="40" as="geometry">
            <mxRectangle width="68" height="40" as="alternateBounds" />
          </mxGeometry>
        </mxCell>
        <mxCell id="oGTQj1oGCnuFLCIUEzCe-455" value="Capacity" style="shape=partialRectangle;html=1;whiteSpace=wrap;connectable=0;strokeColor=inherit;overflow=hidden;fillColor=none;top=0;left=0;bottom=0;right=0;pointerEvents=1;" vertex="1" parent="oGTQj1oGCnuFLCIUEzCe-451">
          <mxGeometry x="203" width="67" height="40" as="geometry">
            <mxRectangle width="67" height="40" as="alternateBounds" />
          </mxGeometry>
        </mxCell>
        <mxCell id="oGTQj1oGCnuFLCIUEzCe-456" value="location" style="shape=partialRectangle;html=1;whiteSpace=wrap;connectable=0;strokeColor=inherit;overflow=hidden;fillColor=none;top=0;left=0;bottom=0;right=0;pointerEvents=1;" vertex="1" parent="oGTQj1oGCnuFLCIUEzCe-451">
          <mxGeometry x="270" width="67" height="40" as="geometry">
            <mxRectangle width="67" height="40" as="alternateBounds" />
          </mxGeometry>
        </mxCell>
        <mxCell id="oGTQj1oGCnuFLCIUEzCe-467" value="Billing and Payment" style="shape=table;startSize=30;container=1;collapsible=0;childLayout=tableLayout;" vertex="1" parent="1">
          <mxGeometry x="-5560" y="55" width="460" height="70" as="geometry" />
        </mxCell>
        <mxCell id="oGTQj1oGCnuFLCIUEzCe-468" value="" style="shape=tableRow;horizontal=0;startSize=0;swimlaneHead=0;swimlaneBody=0;strokeColor=inherit;top=0;left=0;bottom=0;right=0;collapsible=0;dropTarget=0;fillColor=none;points=[[0,0.5],[1,0.5]];portConstraint=eastwest;" vertex="1" parent="oGTQj1oGCnuFLCIUEzCe-467">
          <mxGeometry y="30" width="460" height="40" as="geometry" />
        </mxCell>
        <mxCell id="oGTQj1oGCnuFLCIUEzCe-469" value="&lt;u&gt;TransactionID&lt;/u&gt;" style="shape=partialRectangle;html=1;whiteSpace=wrap;connectable=0;strokeColor=inherit;overflow=hidden;fillColor=none;top=0;left=0;bottom=0;right=0;pointerEvents=1;" vertex="1" parent="oGTQj1oGCnuFLCIUEzCe-468">
          <mxGeometry width="76" height="40" as="geometry">
            <mxRectangle width="76" height="40" as="alternateBounds" />
          </mxGeometry>
        </mxCell>
        <mxCell id="oGTQj1oGCnuFLCIUEzCe-470" value="&lt;i&gt;MemberID&lt;/i&gt;" style="shape=partialRectangle;html=1;whiteSpace=wrap;connectable=0;strokeColor=inherit;overflow=hidden;fillColor=none;top=0;left=0;bottom=0;right=0;pointerEvents=1;" vertex="1" parent="oGTQj1oGCnuFLCIUEzCe-468">
          <mxGeometry x="76" width="78" height="40" as="geometry">
            <mxRectangle width="78" height="40" as="alternateBounds" />
          </mxGeometry>
        </mxCell>
        <mxCell id="oGTQj1oGCnuFLCIUEzCe-471" value="Amount" style="shape=partialRectangle;html=1;whiteSpace=wrap;connectable=0;strokeColor=inherit;overflow=hidden;fillColor=none;top=0;left=0;bottom=0;right=0;pointerEvents=1;" vertex="1" parent="oGTQj1oGCnuFLCIUEzCe-468">
          <mxGeometry x="154" width="76" height="40" as="geometry">
            <mxRectangle width="76" height="40" as="alternateBounds" />
          </mxGeometry>
        </mxCell>
        <mxCell id="oGTQj1oGCnuFLCIUEzCe-472" value="Date" style="shape=partialRectangle;html=1;whiteSpace=wrap;connectable=0;strokeColor=inherit;overflow=hidden;fillColor=none;top=0;left=0;bottom=0;right=0;pointerEvents=1;" vertex="1" parent="oGTQj1oGCnuFLCIUEzCe-468">
          <mxGeometry x="230" width="76" height="40" as="geometry">
            <mxRectangle width="76" height="40" as="alternateBounds" />
          </mxGeometry>
        </mxCell>
        <mxCell id="oGTQj1oGCnuFLCIUEzCe-473" value="Payment Method" style="shape=partialRectangle;html=1;whiteSpace=wrap;connectable=0;strokeColor=inherit;overflow=hidden;fillColor=none;top=0;left=0;bottom=0;right=0;pointerEvents=1;" vertex="1" parent="oGTQj1oGCnuFLCIUEzCe-468">
          <mxGeometry x="306" width="78" height="40" as="geometry">
            <mxRectangle width="78" height="40" as="alternateBounds" />
          </mxGeometry>
        </mxCell>
        <mxCell id="oGTQj1oGCnuFLCIUEzCe-474" value="Service" style="shape=partialRectangle;html=1;whiteSpace=wrap;connectable=0;strokeColor=inherit;overflow=hidden;fillColor=none;top=0;left=0;bottom=0;right=0;pointerEvents=1;" vertex="1" parent="oGTQj1oGCnuFLCIUEzCe-468">
          <mxGeometry x="384" width="76" height="40" as="geometry">
            <mxRectangle width="76" height="40" as="alternateBounds" />
          </mxGeometry>
        </mxCell>
        <mxCell id="oGTQj1oGCnuFLCIUEzCe-475" value="Personal Training Session" style="shape=table;startSize=30;container=1;collapsible=0;childLayout=tableLayout;" vertex="1" parent="1">
          <mxGeometry x="-5440" y="605" width="360" height="70" as="geometry" />
        </mxCell>
        <mxCell id="oGTQj1oGCnuFLCIUEzCe-476" value="" style="shape=tableRow;horizontal=0;startSize=0;swimlaneHead=0;swimlaneBody=0;strokeColor=inherit;top=0;left=0;bottom=0;right=0;collapsible=0;dropTarget=0;fillColor=none;points=[[0,0.5],[1,0.5]];portConstraint=eastwest;" vertex="1" parent="oGTQj1oGCnuFLCIUEzCe-475">
          <mxGeometry y="30" width="360" height="40" as="geometry" />
        </mxCell>
        <mxCell id="oGTQj1oGCnuFLCIUEzCe-477" value="&lt;u&gt;SessionID&lt;/u&gt;" style="shape=partialRectangle;html=1;whiteSpace=wrap;connectable=0;strokeColor=inherit;overflow=hidden;fillColor=none;top=0;left=0;bottom=0;right=0;pointerEvents=1;" vertex="1" parent="oGTQj1oGCnuFLCIUEzCe-476">
          <mxGeometry width="60" height="40" as="geometry">
            <mxRectangle width="60" height="40" as="alternateBounds" />
          </mxGeometry>
        </mxCell>
        <mxCell id="oGTQj1oGCnuFLCIUEzCe-478" value="Duration" style="shape=partialRectangle;html=1;whiteSpace=wrap;connectable=0;strokeColor=inherit;overflow=hidden;fillColor=none;top=0;left=0;bottom=0;right=0;pointerEvents=1;" vertex="1" parent="oGTQj1oGCnuFLCIUEzCe-476">
          <mxGeometry x="60" width="60" height="40" as="geometry">
            <mxRectangle width="60" height="40" as="alternateBounds" />
          </mxGeometry>
        </mxCell>
        <mxCell id="oGTQj1oGCnuFLCIUEzCe-479" value="Day" style="shape=partialRectangle;html=1;whiteSpace=wrap;connectable=0;strokeColor=inherit;overflow=hidden;fillColor=none;top=0;left=0;bottom=0;right=0;pointerEvents=1;" vertex="1" parent="oGTQj1oGCnuFLCIUEzCe-476">
          <mxGeometry x="120" width="60" height="40" as="geometry">
            <mxRectangle width="60" height="40" as="alternateBounds" />
          </mxGeometry>
        </mxCell>
        <mxCell id="oGTQj1oGCnuFLCIUEzCe-480" value="Time" style="shape=partialRectangle;html=1;whiteSpace=wrap;connectable=0;strokeColor=inherit;overflow=hidden;fillColor=none;top=0;left=0;bottom=0;right=0;pointerEvents=1;" vertex="1" parent="oGTQj1oGCnuFLCIUEzCe-476">
          <mxGeometry x="180" width="60" height="40" as="geometry">
            <mxRectangle width="60" height="40" as="alternateBounds" />
          </mxGeometry>
        </mxCell>
        <mxCell id="oGTQj1oGCnuFLCIUEzCe-481" value="memberID" style="shape=partialRectangle;html=1;whiteSpace=wrap;connectable=0;strokeColor=inherit;overflow=hidden;fillColor=none;top=0;left=0;bottom=0;right=0;pointerEvents=1;" vertex="1" parent="oGTQj1oGCnuFLCIUEzCe-476">
          <mxGeometry x="240" width="60" height="40" as="geometry">
            <mxRectangle width="60" height="40" as="alternateBounds" />
          </mxGeometry>
        </mxCell>
        <mxCell id="oGTQj1oGCnuFLCIUEzCe-482" value="trainerID" style="shape=partialRectangle;html=1;whiteSpace=wrap;connectable=0;strokeColor=inherit;overflow=hidden;fillColor=none;top=0;left=0;bottom=0;right=0;pointerEvents=1;" vertex="1" parent="oGTQj1oGCnuFLCIUEzCe-476">
          <mxGeometry x="300" width="60" height="40" as="geometry">
            <mxRectangle width="60" height="40" as="alternateBounds" />
          </mxGeometry>
        </mxCell>
        <mxCell id="oGTQj1oGCnuFLCIUEzCe-483" value="Loyalty Program" style="shape=table;startSize=30;container=1;collapsible=0;childLayout=tableLayout;" vertex="1" parent="1">
          <mxGeometry x="-6260" y="135" width="364" height="70" as="geometry" />
        </mxCell>
        <mxCell id="oGTQj1oGCnuFLCIUEzCe-484" value="" style="shape=tableRow;horizontal=0;startSize=0;swimlaneHead=0;swimlaneBody=0;strokeColor=inherit;top=0;left=0;bottom=0;right=0;collapsible=0;dropTarget=0;fillColor=none;points=[[0,0.5],[1,0.5]];portConstraint=eastwest;" vertex="1" parent="oGTQj1oGCnuFLCIUEzCe-483">
          <mxGeometry y="30" width="364" height="40" as="geometry" />
        </mxCell>
        <mxCell id="oGTQj1oGCnuFLCIUEzCe-485" value="&lt;u&gt;MemberID&lt;/u&gt;" style="shape=partialRectangle;html=1;whiteSpace=wrap;connectable=0;strokeColor=inherit;overflow=hidden;fillColor=none;top=0;left=0;bottom=0;right=0;pointerEvents=1;" vertex="1" parent="oGTQj1oGCnuFLCIUEzCe-484">
          <mxGeometry width="91" height="40" as="geometry">
            <mxRectangle width="91" height="40" as="alternateBounds" />
          </mxGeometry>
        </mxCell>
        <mxCell id="oGTQj1oGCnuFLCIUEzCe-486" value="Total Points" style="shape=partialRectangle;html=1;whiteSpace=wrap;connectable=0;strokeColor=inherit;overflow=hidden;fillColor=none;top=0;left=0;bottom=0;right=0;pointerEvents=1;" vertex="1" parent="oGTQj1oGCnuFLCIUEzCe-484">
          <mxGeometry x="91" width="91" height="40" as="geometry">
            <mxRectangle width="91" height="40" as="alternateBounds" />
          </mxGeometry>
        </mxCell>
        <mxCell id="oGTQj1oGCnuFLCIUEzCe-487" value="Points per&amp;nbsp;Transaction" style="shape=partialRectangle;html=1;whiteSpace=wrap;connectable=0;strokeColor=inherit;overflow=hidden;fillColor=none;top=0;left=0;bottom=0;right=0;pointerEvents=1;" vertex="1" parent="oGTQj1oGCnuFLCIUEzCe-484">
          <mxGeometry x="182" width="91" height="40" as="geometry">
            <mxRectangle width="91" height="40" as="alternateBounds" />
          </mxGeometry>
        </mxCell>
        <mxCell id="oGTQj1oGCnuFLCIUEzCe-488" value="Redeemed" style="shape=partialRectangle;html=1;whiteSpace=wrap;connectable=0;strokeColor=inherit;overflow=hidden;fillColor=none;top=0;left=0;bottom=0;right=0;pointerEvents=1;" vertex="1" parent="oGTQj1oGCnuFLCIUEzCe-484">
          <mxGeometry x="273" width="91" height="40" as="geometry">
            <mxRectangle width="91" height="40" as="alternateBounds" />
          </mxGeometry>
        </mxCell>
        <mxCell id="oGTQj1oGCnuFLCIUEzCe-489" value="Administrative Staff" style="shape=table;startSize=30;container=1;collapsible=0;childLayout=tableLayout;" vertex="1" parent="1">
          <mxGeometry x="-5080" y="455" width="300" height="70" as="geometry" />
        </mxCell>
        <mxCell id="oGTQj1oGCnuFLCIUEzCe-490" value="" style="shape=tableRow;horizontal=0;startSize=0;swimlaneHead=0;swimlaneBody=0;strokeColor=inherit;top=0;left=0;bottom=0;right=0;collapsible=0;dropTarget=0;fillColor=none;points=[[0,0.5],[1,0.5]];portConstraint=eastwest;" vertex="1" parent="oGTQj1oGCnuFLCIUEzCe-489">
          <mxGeometry y="30" width="300" height="40" as="geometry" />
        </mxCell>
        <mxCell id="oGTQj1oGCnuFLCIUEzCe-491" value="&lt;u&gt;StaffID&lt;/u&gt;" style="shape=partialRectangle;html=1;whiteSpace=wrap;connectable=0;strokeColor=inherit;overflow=hidden;fillColor=none;top=0;left=0;bottom=0;right=0;pointerEvents=1;" vertex="1" parent="oGTQj1oGCnuFLCIUEzCe-490">
          <mxGeometry width="60" height="40" as="geometry">
            <mxRectangle width="60" height="40" as="alternateBounds" />
          </mxGeometry>
        </mxCell>
        <mxCell id="oGTQj1oGCnuFLCIUEzCe-492" value="Name" style="shape=partialRectangle;html=1;whiteSpace=wrap;connectable=0;strokeColor=inherit;overflow=hidden;fillColor=none;top=0;left=0;bottom=0;right=0;pointerEvents=1;" vertex="1" parent="oGTQj1oGCnuFLCIUEzCe-490">
          <mxGeometry x="60" width="60" height="40" as="geometry">
            <mxRectangle width="60" height="40" as="alternateBounds" />
          </mxGeometry>
        </mxCell>
        <mxCell id="oGTQj1oGCnuFLCIUEzCe-493" value="Email" style="shape=partialRectangle;html=1;whiteSpace=wrap;connectable=0;strokeColor=inherit;overflow=hidden;fillColor=none;top=0;left=0;bottom=0;right=0;pointerEvents=1;" vertex="1" parent="oGTQj1oGCnuFLCIUEzCe-490">
          <mxGeometry x="120" width="60" height="40" as="geometry">
            <mxRectangle width="60" height="40" as="alternateBounds" />
          </mxGeometry>
        </mxCell>
        <mxCell id="oGTQj1oGCnuFLCIUEzCe-494" value="Role" style="shape=partialRectangle;html=1;whiteSpace=wrap;connectable=0;strokeColor=inherit;overflow=hidden;fillColor=none;top=0;left=0;bottom=0;right=0;pointerEvents=1;" vertex="1" parent="oGTQj1oGCnuFLCIUEzCe-490">
          <mxGeometry x="180" width="60" height="40" as="geometry">
            <mxRectangle width="60" height="40" as="alternateBounds" />
          </mxGeometry>
        </mxCell>
        <mxCell id="oGTQj1oGCnuFLCIUEzCe-495" value="Work Schedule" style="shape=partialRectangle;html=1;whiteSpace=wrap;connectable=0;strokeColor=inherit;overflow=hidden;fillColor=none;top=0;left=0;bottom=0;right=0;pointerEvents=1;" vertex="1" parent="oGTQj1oGCnuFLCIUEzCe-490">
          <mxGeometry x="240" width="60" height="40" as="geometry">
            <mxRectangle width="60" height="40" as="alternateBounds" />
          </mxGeometry>
        </mxCell>
        <mxCell id="oGTQj1oGCnuFLCIUEzCe-496" value="" style="endArrow=classic;html=1;rounded=0;exitX=0.081;exitY=0.971;exitDx=0;exitDy=0;exitPerimeter=0;edgeStyle=orthogonalEdgeStyle;" edge="1" parent="1" source="oGTQj1oGCnuFLCIUEzCe-484">
          <mxGeometry width="50" height="50" relative="1" as="geometry">
            <mxPoint x="-6010" y="375" as="sourcePoint" />
            <mxPoint x="-6270" y="446" as="targetPoint" />
            <Array as="points">
              <mxPoint x="-6230" y="325.5" />
              <mxPoint x="-6270" y="325.5" />
            </Array>
          </mxGeometry>
        </mxCell>
        <mxCell id="oGTQj1oGCnuFLCIUEzCe-497" value="" style="endArrow=classic;html=1;rounded=0;edgeStyle=orthogonalEdgeStyle;exitX=0.921;exitY=1.063;exitDx=0;exitDy=0;exitPerimeter=0;entryX=0.51;entryY=-0.019;entryDx=0;entryDy=0;entryPerimeter=0;" edge="1" parent="1" target="oGTQj1oGCnuFLCIUEzCe-483">
          <mxGeometry width="50" height="50" relative="1" as="geometry">
            <mxPoint x="-5901.18" y="487.5200000000001" as="sourcePoint" />
            <mxPoint x="-6050" y="125" as="targetPoint" />
            <Array as="points">
              <mxPoint x="-5898" y="487.5" />
              <mxPoint x="-5898" y="505.5" />
              <mxPoint x="-5738" y="505.5" />
              <mxPoint x="-5738" y="65.5" />
              <mxPoint x="-6070" y="65.5" />
              <mxPoint x="-6070" y="133.5" />
            </Array>
          </mxGeometry>
        </mxCell>
        <mxCell id="oGTQj1oGCnuFLCIUEzCe-498" value="" style="endArrow=classic;html=1;rounded=0;exitX=0.743;exitY=1;exitDx=0;exitDy=0;exitPerimeter=0;entryX=0.061;entryY=1.045;entryDx=0;entryDy=0;entryPerimeter=0;edgeStyle=elbowEdgeStyle;elbow=vertical;" edge="1" parent="1" source="oGTQj1oGCnuFLCIUEzCe-476" target="oGTQj1oGCnuFLCIUEzCe-437">
          <mxGeometry width="50" height="50" relative="1" as="geometry">
            <mxPoint x="-5310" y="755" as="sourcePoint" />
            <mxPoint x="-6090" y="565" as="targetPoint" />
            <Array as="points">
              <mxPoint x="-5730" y="695" />
            </Array>
          </mxGeometry>
        </mxCell>
        <mxCell id="oGTQj1oGCnuFLCIUEzCe-499" value="" style="endArrow=classic;html=1;rounded=0;exitX=0.932;exitY=1.023;exitDx=0;exitDy=0;exitPerimeter=0;entryX=0.162;entryY=1;entryDx=0;entryDy=0;entryPerimeter=0;edgeStyle=elbowEdgeStyle;elbow=vertical;" edge="1" parent="1" source="oGTQj1oGCnuFLCIUEzCe-476" target="oGTQj1oGCnuFLCIUEzCe-446">
          <mxGeometry width="50" height="50" relative="1" as="geometry">
            <mxPoint x="-5710" y="555" as="sourcePoint" />
            <mxPoint x="-5660" y="505" as="targetPoint" />
            <Array as="points">
              <mxPoint x="-5510" y="815" />
            </Array>
          </mxGeometry>
        </mxCell>
        <mxCell id="oGTQj1oGCnuFLCIUEzCe-500" value="register" style="shape=table;startSize=30;container=1;collapsible=0;childLayout=tableLayout;" vertex="1" parent="1">
          <mxGeometry x="-5600" y="485" width="120" height="70" as="geometry" />
        </mxCell>
        <mxCell id="oGTQj1oGCnuFLCIUEzCe-501" value="" style="shape=tableRow;horizontal=0;startSize=0;swimlaneHead=0;swimlaneBody=0;strokeColor=inherit;top=0;left=0;bottom=0;right=0;collapsible=0;dropTarget=0;fillColor=none;points=[[0,0.5],[1,0.5]];portConstraint=eastwest;" vertex="1" parent="oGTQj1oGCnuFLCIUEzCe-500">
          <mxGeometry y="30" width="120" height="40" as="geometry" />
        </mxCell>
        <mxCell id="oGTQj1oGCnuFLCIUEzCe-502" value="&lt;u&gt;MemberID&lt;/u&gt;" style="shape=partialRectangle;html=1;whiteSpace=wrap;connectable=0;strokeColor=inherit;overflow=hidden;fillColor=none;top=0;left=0;bottom=0;right=0;pointerEvents=1;" vertex="1" parent="oGTQj1oGCnuFLCIUEzCe-501">
          <mxGeometry width="60" height="40" as="geometry">
            <mxRectangle width="60" height="40" as="alternateBounds" />
          </mxGeometry>
        </mxCell>
        <mxCell id="oGTQj1oGCnuFLCIUEzCe-503" value="&lt;u&gt;ClassID&lt;/u&gt;" style="shape=partialRectangle;html=1;whiteSpace=wrap;connectable=0;strokeColor=inherit;overflow=hidden;fillColor=none;top=0;left=0;bottom=0;right=0;pointerEvents=1;" vertex="1" parent="oGTQj1oGCnuFLCIUEzCe-501">
          <mxGeometry x="60" width="60" height="40" as="geometry">
            <mxRectangle width="60" height="40" as="alternateBounds" />
          </mxGeometry>
        </mxCell>
        <mxCell id="oGTQj1oGCnuFLCIUEzCe-504" value="" style="endArrow=classic;html=1;rounded=0;exitX=0.751;exitY=1.106;exitDx=0;exitDy=0;exitPerimeter=0;entryX=0.107;entryY=1.01;entryDx=0;entryDy=0;entryPerimeter=0;edgeStyle=elbowEdgeStyle;elbow=vertical;" edge="1" parent="1" source="oGTQj1oGCnuFLCIUEzCe-501" target="oGTQj1oGCnuFLCIUEzCe-451">
          <mxGeometry width="50" height="50" relative="1" as="geometry">
            <mxPoint x="-5450" y="695" as="sourcePoint" />
            <mxPoint x="-5500" y="745" as="targetPoint" />
            <Array as="points">
              <mxPoint x="-5450" y="575" />
            </Array>
          </mxGeometry>
        </mxCell>
        <mxCell id="oGTQj1oGCnuFLCIUEzCe-505" value="" style="endArrow=classic;html=1;rounded=0;exitX=0.153;exitY=1.037;exitDx=0;exitDy=0;exitPerimeter=0;entryX=0.081;entryY=1.069;entryDx=0;entryDy=0;entryPerimeter=0;edgeStyle=elbowEdgeStyle;elbow=vertical;" edge="1" parent="1" source="oGTQj1oGCnuFLCIUEzCe-501" target="oGTQj1oGCnuFLCIUEzCe-437">
          <mxGeometry width="50" height="50" relative="1" as="geometry">
            <mxPoint x="-5920" y="605" as="sourcePoint" />
            <mxPoint x="-5960" y="565" as="targetPoint" />
            <Array as="points">
              <mxPoint x="-5920" y="575" />
            </Array>
          </mxGeometry>
        </mxCell>
        <mxCell id="oGTQj1oGCnuFLCIUEzCe-506" value="" style="endArrow=classic;html=1;rounded=0;edgeStyle=orthogonalEdgeStyle;entryX=0.1;entryY=1.064;entryDx=0;entryDy=0;entryPerimeter=0;exitX=0.255;exitY=1.009;exitDx=0;exitDy=0;exitPerimeter=0;" edge="1" parent="1" source="oGTQj1oGCnuFLCIUEzCe-468" target="oGTQj1oGCnuFLCIUEzCe-437">
          <mxGeometry width="50" height="50" relative="1" as="geometry">
            <mxPoint x="-5480" y="275" as="sourcePoint" />
            <mxPoint x="-6248" y="525" as="targetPoint" />
            <Array as="points">
              <mxPoint x="-5443" y="128" />
              <mxPoint x="-5443" y="276" />
              <mxPoint x="-5700" y="276" />
              <mxPoint x="-5700" y="525" />
              <mxPoint x="-6248" y="525" />
            </Array>
          </mxGeometry>
        </mxCell>
        <mxCell id="oGTQj1oGCnuFLCIUEzCe-507" value="" style="endArrow=classic;html=1;rounded=0;exitX=0.855;exitY=1.065;exitDx=0;exitDy=0;exitPerimeter=0;entryX=0.077;entryY=1;entryDx=0;entryDy=0;entryPerimeter=0;edgeStyle=elbowEdgeStyle;elbow=vertical;" edge="1" parent="1" source="oGTQj1oGCnuFLCIUEzCe-518" target="oGTQj1oGCnuFLCIUEzCe-490">
          <mxGeometry width="50" height="50" relative="1" as="geometry">
            <mxPoint x="-4499.96" y="343.02" as="sourcePoint" />
            <mxPoint x="-4690" y="445" as="targetPoint" />
            <Array as="points">
              <mxPoint x="-4740" y="595" />
            </Array>
          </mxGeometry>
        </mxCell>
        <mxCell id="oGTQj1oGCnuFLCIUEzCe-508" value="" style="endArrow=classic;html=1;rounded=0;exitX=0.896;exitY=1.175;exitDx=0;exitDy=0;exitPerimeter=0;edgeStyle=elbowEdgeStyle;elbow=vertical;entryX=0.089;entryY=1.13;entryDx=0;entryDy=0;entryPerimeter=0;" edge="1" parent="1" source="oGTQj1oGCnuFLCIUEzCe-451" target="oGTQj1oGCnuFLCIUEzCe-518">
          <mxGeometry width="50" height="50" relative="1" as="geometry">
            <mxPoint x="-5123" y="397" as="sourcePoint" />
            <mxPoint x="-4927" y="344" as="targetPoint" />
            <Array as="points">
              <mxPoint x="-4860" y="415" />
            </Array>
          </mxGeometry>
        </mxCell>
        <mxCell id="oGTQj1oGCnuFLCIUEzCe-509" value="" style="endArrow=classic;html=1;rounded=0;exitX=0.832;exitY=1.076;exitDx=0;exitDy=0;exitPerimeter=0;entryX=0.123;entryY=1.035;entryDx=0;entryDy=0;entryPerimeter=0;edgeStyle=elbowEdgeStyle;elbow=vertical;" edge="1" parent="1" source="oGTQj1oGCnuFLCIUEzCe-525" target="oGTQj1oGCnuFLCIUEzCe-490">
          <mxGeometry width="50" height="50" relative="1" as="geometry">
            <mxPoint x="-4395.8" y="345.2199999999998" as="sourcePoint" />
            <mxPoint x="-4680" y="342.5" as="targetPoint" />
            <Array as="points">
              <mxPoint x="-4590" y="552.5" />
            </Array>
          </mxGeometry>
        </mxCell>
        <mxCell id="oGTQj1oGCnuFLCIUEzCe-517" value="Room" style="shape=table;startSize=30;container=1;collapsible=0;childLayout=tableLayout;" vertex="1" parent="1">
          <mxGeometry x="-4860" y="260" width="240" height="70" as="geometry" />
        </mxCell>
        <mxCell id="oGTQj1oGCnuFLCIUEzCe-518" value="" style="shape=tableRow;horizontal=0;startSize=0;swimlaneHead=0;swimlaneBody=0;strokeColor=inherit;top=0;left=0;bottom=0;right=0;collapsible=0;dropTarget=0;fillColor=none;points=[[0,0.5],[1,0.5]];portConstraint=eastwest;" vertex="1" parent="oGTQj1oGCnuFLCIUEzCe-517">
          <mxGeometry y="30" width="240" height="40" as="geometry" />
        </mxCell>
        <mxCell id="oGTQj1oGCnuFLCIUEzCe-519" value="RoomID" style="shape=partialRectangle;html=1;whiteSpace=wrap;connectable=0;strokeColor=inherit;overflow=hidden;fillColor=none;top=0;left=0;bottom=0;right=0;pointerEvents=1;" vertex="1" parent="oGTQj1oGCnuFLCIUEzCe-518">
          <mxGeometry width="60" height="40" as="geometry">
            <mxRectangle width="60" height="40" as="alternateBounds" />
          </mxGeometry>
        </mxCell>
        <mxCell id="oGTQj1oGCnuFLCIUEzCe-520" value="Name" style="shape=partialRectangle;html=1;whiteSpace=wrap;connectable=0;strokeColor=inherit;overflow=hidden;fillColor=none;top=0;left=0;bottom=0;right=0;pointerEvents=1;" vertex="1" parent="oGTQj1oGCnuFLCIUEzCe-518">
          <mxGeometry x="60" width="60" height="40" as="geometry">
            <mxRectangle width="60" height="40" as="alternateBounds" />
          </mxGeometry>
        </mxCell>
        <mxCell id="oGTQj1oGCnuFLCIUEzCe-521" value="Capacity" style="shape=partialRectangle;html=1;whiteSpace=wrap;connectable=0;strokeColor=inherit;overflow=hidden;fillColor=none;top=0;left=0;bottom=0;right=0;pointerEvents=1;" vertex="1" parent="oGTQj1oGCnuFLCIUEzCe-518">
          <mxGeometry x="120" width="60" height="40" as="geometry">
            <mxRectangle width="60" height="40" as="alternateBounds" />
          </mxGeometry>
        </mxCell>
        <mxCell id="oGTQj1oGCnuFLCIUEzCe-522" value="Room Available" style="shape=partialRectangle;html=1;whiteSpace=wrap;connectable=0;strokeColor=inherit;overflow=hidden;fillColor=none;top=0;left=0;bottom=0;right=0;pointerEvents=1;" vertex="1" parent="oGTQj1oGCnuFLCIUEzCe-518">
          <mxGeometry x="180" width="60" height="40" as="geometry">
            <mxRectangle width="60" height="40" as="alternateBounds" />
          </mxGeometry>
        </mxCell>
        <mxCell id="oGTQj1oGCnuFLCIUEzCe-524" value="Equipment" style="shape=table;startSize=30;container=1;collapsible=0;childLayout=tableLayout;" vertex="1" parent="1">
          <mxGeometry x="-4670" y="150" width="270" height="70" as="geometry" />
        </mxCell>
        <mxCell id="oGTQj1oGCnuFLCIUEzCe-525" value="" style="shape=tableRow;horizontal=0;startSize=0;swimlaneHead=0;swimlaneBody=0;strokeColor=inherit;top=0;left=0;bottom=0;right=0;collapsible=0;dropTarget=0;fillColor=none;points=[[0,0.5],[1,0.5]];portConstraint=eastwest;" vertex="1" parent="oGTQj1oGCnuFLCIUEzCe-524">
          <mxGeometry y="30" width="270" height="40" as="geometry" />
        </mxCell>
        <mxCell id="oGTQj1oGCnuFLCIUEzCe-526" value="&lt;u&gt;EquipmentID&lt;/u&gt;" style="shape=partialRectangle;html=1;whiteSpace=wrap;connectable=0;strokeColor=inherit;overflow=hidden;fillColor=none;top=0;left=0;bottom=0;right=0;pointerEvents=1;" vertex="1" parent="oGTQj1oGCnuFLCIUEzCe-525">
          <mxGeometry width="60" height="40" as="geometry">
            <mxRectangle width="60" height="40" as="alternateBounds" />
          </mxGeometry>
        </mxCell>
        <mxCell id="oGTQj1oGCnuFLCIUEzCe-527" value="Kind" style="shape=partialRectangle;html=1;whiteSpace=wrap;connectable=0;strokeColor=inherit;overflow=hidden;fillColor=none;top=0;left=0;bottom=0;right=0;pointerEvents=1;" vertex="1" parent="oGTQj1oGCnuFLCIUEzCe-525">
          <mxGeometry x="60" width="60" height="40" as="geometry">
            <mxRectangle width="60" height="40" as="alternateBounds" />
          </mxGeometry>
        </mxCell>
        <mxCell id="oGTQj1oGCnuFLCIUEzCe-528" value="location" style="shape=partialRectangle;html=1;whiteSpace=wrap;connectable=0;strokeColor=inherit;overflow=hidden;fillColor=none;top=0;left=0;bottom=0;right=0;pointerEvents=1;" vertex="1" parent="oGTQj1oGCnuFLCIUEzCe-525">
          <mxGeometry x="120" width="60" height="40" as="geometry">
            <mxRectangle width="60" height="40" as="alternateBounds" />
          </mxGeometry>
        </mxCell>
        <mxCell id="oGTQj1oGCnuFLCIUEzCe-529" value="Maintenance Schedule" style="shape=partialRectangle;html=1;whiteSpace=wrap;connectable=0;strokeColor=inherit;overflow=hidden;fillColor=none;top=0;left=0;bottom=0;right=0;pointerEvents=1;" vertex="1" parent="oGTQj1oGCnuFLCIUEzCe-525">
          <mxGeometry x="180" width="90" height="40" as="geometry">
            <mxRectangle width="90" height="40" as="alternateBounds" />
          </mxGeometry>
        </mxCell>
        <mxCell id="oGTQj1oGCnuFLCIUEzCe-530" value="" style="endArrow=classic;html=1;rounded=0;exitX=0.53;exitY=0.989;exitDx=0;exitDy=0;exitPerimeter=0;entryX=0.148;entryY=1.043;entryDx=0;entryDy=0;entryPerimeter=0;edgeStyle=elbowEdgeStyle;elbow=vertical;" edge="1" parent="1" source="oGTQj1oGCnuFLCIUEzCe-525" target="oGTQj1oGCnuFLCIUEzCe-518">
          <mxGeometry width="50" height="50" relative="1" as="geometry">
            <mxPoint x="-4420" y="350" as="sourcePoint" />
            <mxPoint x="-4370" y="300" as="targetPoint" />
            <Array as="points">
              <mxPoint x="-4690" y="370" />
            </Array>
          </mxGeometry>
        </mxCell>
        <mxCell id="oGTQj1oGCnuFLCIUEzCe-531" value="&lt;font style=&quot;font-size: 36px;&quot;&gt;New Structure&lt;/font&gt;" style="text;html=1;strokeColor=none;fillColor=none;align=center;verticalAlign=middle;whiteSpace=wrap;rounded=0;" vertex="1" parent="1">
          <mxGeometry x="-5485" y="-210" width="315" height="180" as="geometry" />
        </mxCell>
      </root>
    </mxGraphModel>
  </diagram>
</mxfile>
